<svg width="23" height="23" viewBox="0 0 23 23" fill="none" xmlns="http://www.w3.org/2000/svg">
    <path fill-rule="evenodd" clip-rule="evenodd"
          d="M6.93375 0.96932C8.10675 0.91532 8.48075 0.90332 11.4688 0.90332C14.4567 0.90332 14.8308 0.91632 16.0028 0.96932C17.1748 1.02232 17.9747 1.20932 18.6747 1.48032C19.4077 1.75732 20.0728 2.19032 20.6227 2.75032C21.1827 3.29932 21.6148 3.96332 21.8908 4.69732C22.1628 5.39732 22.3487 6.19732 22.4028 7.36732C22.4568 8.54232 22.4688 8.91632 22.4688 11.9033C22.4688 14.8913 22.4557 15.2653 22.4028 16.4383C22.3498 17.6083 22.1628 18.4083 21.8908 19.1083C21.6147 19.8424 21.182 20.5075 20.6227 21.0573C20.0728 21.6173 19.4077 22.0493 18.6747 22.3253C17.9747 22.5973 17.1747 22.7833 16.0047 22.8373C14.8307 22.8913 14.4567 22.9033 11.4688 22.9033C8.48075 22.9033 8.10675 22.8903 6.93375 22.8373C5.76375 22.7843 4.96375 22.5973 4.26375 22.3253C3.52967 22.0493 2.86457 21.6166 2.31475 21.0573C1.75513 20.508 1.32206 19.8432 1.04575 19.1093C0.77475 18.4093 0.58875 17.6093 0.53475 16.4393C0.48075 15.2643 0.46875 14.8903 0.46875 11.9033C0.46875 8.91532 0.48175 8.54132 0.53475 7.36932C0.58775 6.19732 0.77475 5.39732 1.04575 4.69732C1.32247 3.9634 1.75587 3.29863 2.31575 2.74932C2.86479 2.18982 3.52922 1.75676 4.26275 1.48032C4.96275 1.20932 5.76275 1.02332 6.93275 0.96932H6.93375ZM15.9137 2.94932C14.7537 2.89632 14.4058 2.88532 11.4688 2.88532C8.53175 2.88532 8.18375 2.89632 7.02375 2.94932C5.95075 2.99832 5.36875 3.17732 4.98075 3.32832C4.46775 3.52832 4.10075 3.76532 3.71575 4.15032C3.3508 4.50537 3.06993 4.9376 2.89375 5.41532C2.74275 5.80332 2.56375 6.38532 2.51475 7.45832C2.46175 8.61832 2.45075 8.96632 2.45075 11.9033C2.45075 14.8403 2.46175 15.1883 2.51475 16.3483C2.56375 17.4213 2.74275 18.0033 2.89375 18.3913C3.06975 18.8683 3.35075 19.3013 3.71575 19.6563C4.07075 20.0213 4.50375 20.3023 4.98075 20.4783C5.36875 20.6293 5.95075 20.8083 7.02375 20.8573C8.18375 20.9103 8.53075 20.9213 11.4688 20.9213C14.4067 20.9213 14.7537 20.9103 15.9137 20.8573C16.9867 20.8083 17.5688 20.6293 17.9568 20.4783C18.4698 20.2783 18.8368 20.0413 19.2218 19.6563C19.5868 19.3013 19.8678 18.8683 20.0438 18.3913C20.1947 18.0033 20.3738 17.4213 20.4228 16.3483C20.4757 15.1883 20.4867 14.8403 20.4867 11.9033C20.4867 8.96632 20.4757 8.61832 20.4228 7.45832C20.3738 6.38532 20.1947 5.80332 20.0438 5.41532C19.8438 4.90232 19.6068 4.53532 19.2218 4.15032C18.8667 3.78539 18.4345 3.50453 17.9568 3.32832C17.5688 3.17732 16.9867 2.99832 15.9137 2.94932ZM10.0638 15.2943C10.8484 15.621 11.7221 15.665 12.5357 15.419C13.3492 15.173 14.0521 14.6522 14.5244 13.9456C14.9966 13.2389 15.2088 12.3902 15.1248 11.5444C15.0408 10.6987 14.6658 9.90829 14.0638 9.30832C13.68 8.9248 13.216 8.63113 12.7051 8.44847C12.1942 8.2658 11.6492 8.19868 11.1092 8.25194C10.5693 8.30519 10.0479 8.4775 9.58255 8.75645C9.1172 9.0354 8.71949 9.41406 8.41805 9.86517C8.11661 10.3163 7.91894 10.8286 7.83927 11.3653C7.75959 11.902 7.7999 12.4496 7.95729 12.9688C8.11468 13.4881 8.38523 13.9659 8.74947 14.368C9.11371 14.7702 9.56257 15.0865 10.0638 15.2943ZM7.47075 7.90532C7.99577 7.3803 8.61907 6.96382 9.30505 6.67968C9.99103 6.39554 10.7263 6.24929 11.4688 6.24929C12.2112 6.24929 12.9465 6.39554 13.6325 6.67968C14.3184 6.96382 14.9417 7.3803 15.4668 7.90532C15.9918 8.43035 16.4082 9.05364 16.6924 9.73962C16.9765 10.4256 17.1228 11.1608 17.1228 11.9033C17.1228 12.6458 16.9765 13.381 16.6924 14.067C16.4082 14.753 15.9918 15.3763 15.4668 15.9013C14.4064 16.9617 12.9683 17.5573 11.4688 17.5573C9.96921 17.5573 8.53109 16.9617 7.47075 15.9013C6.41041 14.841 5.81472 13.4029 5.81472 11.9033C5.81472 10.4038 6.41041 8.96566 7.47075 7.90532ZM18.3768 7.09132C18.5069 6.96859 18.611 6.821 18.6831 6.65729C18.7551 6.49359 18.7936 6.31709 18.7962 6.13825C18.7988 5.95941 18.7655 5.78187 18.6982 5.61613C18.631 5.45039 18.5312 5.29983 18.4047 5.17336C18.2782 5.04689 18.1277 4.94708 17.9619 4.87984C17.7962 4.8126 17.6187 4.7793 17.4398 4.7819C17.261 4.78451 17.0845 4.82297 16.9208 4.89502C16.7571 4.96706 16.6095 5.07122 16.4867 5.20132C16.2481 5.45435 16.1174 5.79044 16.1225 6.13825C16.1275 6.48606 16.2679 6.8182 16.5139 7.06416C16.7599 7.31013 17.092 7.45055 17.4398 7.45562C17.7876 7.46069 18.1237 7.33001 18.3768 7.09132Z"
          />
</svg>
