<?xml version="1.0" encoding="UTF-8"?><svg id="BG" xmlns="http://www.w3.org/2000/svg" viewBox="0 0 920 1315"><defs><style>.cls-1{fill:#f7b600;}.cls-2{fill:#fff;}.cls-3{fill:#fff6bf;}.cls-4{fill:#ffdb00;}.cls-5{fill:#ff1a36;}.cls-6{fill:#bc1a36;}.cls-7{fill:#1e1e1e;}.cls-8{fill:#38d4ff;}.cls-9{fill:#25a9d8;}</style></defs><path class="cls-2" d="M663.34,825.25c-77.71-133.85-354.99-157.54-376.45-246.66-31.65-131.4,198.13-143.22,224.55-294.39l-123.8-77.79c-47.91,154.17-172.52,105.58-269.16,197.13-97.41,92.3-141.22,273.61,59.44,358.05,117.23,49.33,174.28,94.59,163.46,136.85-10.92,42.63-127.6,63.04-216.47,89.43C78.76,1001.58,37.34,1015.87,0,1030.57v282.27c67.76-37.72,156.63-68.77,280.29-100.9,379.75-98.66,460.66-253.02,383.05-386.69Z"/><path class="cls-3" d="M227.45,709.08c120.53,47.74,269.37,140.43,279.03,246.66,8.26,90.71-52.7,171.5-214.38,253.08,369.6-98.77,448.02-251.3,371.23-383.57-77.71-133.85-354.99-157.54-376.45-246.66-31.65-131.4,198.13-143.22,224.55-294.4l-123.8-77.79c-2.66,8.54-5.55,16.46-8.66,23.82,24.64,24.26,53.68,47.45,18.54,90.56-54.49,66.84-201.43,73.2-262.52,171.86-40.2,64.92-51,159.6,92.46,216.42Z"/><path class="cls-2" d="M409.01,136.83s-10.8,24.44-1.59,45.48c9.21,21.03,45.7,55.14,45.7,55.14l54.57,26.26h37.52l9.21-3.75,46.81,17.99,1.28,6.91s10.57,5.12,29.33-7.16c18.76-12.28,39.91-39.56,39.91-39.56,0,0,12.28-19.78,14.67-28.65,2.39-8.87,3.75-17.74,0-23.19-3.75-5.46-13.3-8.87-13.3-8.87l-8.71-2.55s12.46-19.96,5.64-47.59c-6.82-27.63-40.59-42.98-40.59-42.98,0,0,5.12-61.73-20.46-73.67-25.58-11.94-72.35,12.94-72.35,12.94l-2.69-6.12s-19.78-12.28-36.49-9.55c-16.71,2.73-28.21,16.16-32.18,22.06,0,0-24.78-.23-35.01,9.32-10.23,9.55-14.33,17.74-14.33,17.74l-2.39,12.62s-12.96,3.75-19.1,13.64c-6.14,9.89-6.14,20.46-6.14,20.46l3.75,23.19,16.94,9.89Z"/><path class="cls-4" d="M599.27,134.79c-12.11-9.55-22.04-34.92-1.71-43.66,21.83-9.38,69.07,16.71,75.21,49.46l-.68,18.08-8.53,19.1s22.17-2.05,24.22,18.42c2.05,20.46-26.6,55.6-26.6,55.6l-29.33,25.92-18.42,9.21-10.91-2.05-2.96-10.69-3.52-40.82,.68-27.29s15.69-26.94,21.83-60.2l-19.27-11.08Z"/><path class="cls-1" d="M633.89,150.48c.45,9.32-3.18,30.47-10.46,42.98-7.28,12.51,13.42,15.01,29.33-4.32l4.55-3.18,6.25-8.19,8.07,.68c-1.14,15.01-10.71,39.82-35.24,61.39-18.87,16.6,2.05,34.79,26.15,7.05,0,0-30.7,48.89-62.08,36.15l-3.97-73.6,22.62-61.69,14.78,2.73Z"/><path class="cls-4" d="M480.64,74.3c-12.16-9.32-16.17-34.5-1.48-48.77,15.92-15.46,36.95-14.44,49.91-9.89,12.96,4.55,9.1,7.28,9.1,7.28l-26.15,12.51-5.68,5s12.05,42.52-25.69,33.88Z"/><path class="cls-1" d="M496.1,27.23c12.51-9.78,32.97-11.6,32.97-11.6l9.1,5.91-31.83,18.87-10.23-13.19Z"/><path class="cls-4" d="M437.66,100.68c-11.31-3.58-17.96-21.49-14.72-35.3,3.33-14.18,17.85-29.07,38.37-26.6,0,0-1.59,11.2,1.82,17.57,3.41,6.37,6.88,11.94,6.88,11.94,0,0,3.24,40.93-32.35,32.4Z"/><path class="cls-4" d="M453.12,31.33c-11.82,11.37-5.23,44.34,15.23,52.75l1.65-15.8s-14.38-15.12-5.29-35.59l-11.6-1.36Z"/><path class="cls-1" d="M463.13,56.34c-3.41-6.37-1.82-17.57-1.82-17.57-4.62-.56-8.93-.23-12.88,.77-4.22,14.49,3.24,37.68,19.93,44.54l1.65-15.8s-3.95-4.15-6.4-11.05c-.16-.29-.32-.59-.48-.89Z"/><path class="cls-4" d="M438.12,102.21s-8.41-2.9-13.64-7.67-9.55-17.05-9.55-17.05c-36.38,15.01-11.6,56.39,.68,59.35,0,0,29.1,0,22.51-34.62Z"/><path class="cls-4" d="M413.56,69.64l-9.78,5.34c-3.87,16.6,14.55,43.2,34.11,42.29l.23-15.06s-22.28-3.35-24.56-32.57Z"/><path class="cls-1" d="M414.78,77.55c-4.64,1.93-8.28,4.3-11.07,6.96,2.76,15.61,18.08,33.51,34.18,32.76l.23-15.06s-18.1-2.73-23.34-24.66Z"/><path class="cls-5" d="M417.99,195.84c-7.84-8.87-11.26-35.81-.68-57.64,0,0,25.58-3.58,20.81-35.98,0,0,36.62,4.37,31.89-33.94,0,0,17.34,14.95,30.36,3.07,9.72-8.87,8.02-23.36,8.02-23.36,14.33-10.57,48.09-27.29,69.58-31.72s38.54,0,44.51,13.3c5.97,13.3,6.48,43.15,6.48,43.15l.85,13.3s-22.68-12.62-39.56-.68c-16.88,11.94-4.78,34.79-4.78,34.79l13.81,14.67,19.27,11.08-6.82,26.26-13.98,36.67-30.87,46.22-26.2,8.87s-23.77,7.5-62.82-15.01c-39.05-22.51-59.86-53.04-59.86-53.04Z"/><path class="cls-6" d="M618.2,18.14c7.65,31.3-4.09,62.08-4.09,62.08l15.35,4.09s3.07-36.84-11.26-66.17Z"/><path class="cls-6" d="M580.46,99.31c-9.78,1.82-20.46,23.31,13.64,47.3-6.79,29.36-28.96,76.44-71.74,85.38-27.45,5.74-79.47-15.35-108.46-40.25l25.58,37.52,82.31,45.82,26.6-12.96,24.56-14.33,18.19-24.33,11.6-27.29,15.8-50.31s-40.59-17.68-38.09-46.56Z"/><path class="cls-5" d="M491.78,76.35c13.87,8.41,43.43-8.87,26.6-42.75l-12.05,6.82s12.28,27.97-14.55,35.93Z"/><path class="cls-6" d="M491.78,76.35c12.98,7.88,39.71-6.77,29.27-36.46-4.94,2.84-9.25,5.58-12.55,8,1.67,8.87,1.21,23.14-16.73,28.46Z"/><path class="cls-6" d="M419.47,138.65c20.01,7.28,35.93-7.5,31.83-29.79,19.78,2.96,36.38-14.55,33.65-32.29l-14.95-8.3s-.74,42.98-31.89,33.94c0,0,7.05,31.44-18.65,36.44Z"/><path class="cls-8" d="M508.15,93.86c-20.34,5.55-33.88,20.01-33.65,44.57,.23,24.56,16.6,44.57,43.66,44.79,27.06,.23,51.16-22.74,45.48-54.12-5.68-31.38-35.47-40.7-55.48-35.24Z"/><path class="cls-2" d="M563.63,129.1l-88.68,18.19,2.27,8.41,86.86-17.96-.45-8.64Zm-81.86,35.02l80.27-13.87,1.59-5.23-84.13,15.92,2.27,3.18Z"/><path class="cls-9" d="M497.12,178.44c-20.7-24.45-13.54-63.06,17.05-71.97,26.94-7.84,46.73,11.94,50.14,25.58,0,0-4.09-42.29-51.84-40.25-50.48,13.3-48.77,67.87-15.35,86.63Z"/><path class="cls-8" d="M485.38,145.15l-10.43,2.14,2.27,8.41,8.69-1.8c-.45-2.92-.62-5.86-.54-8.75Z"/><path class="cls-8" d="M487.11,159.5l-7.61,1.44,2.27,3.18,6.44-1.11c-.41-1.16-.79-2.33-1.11-3.51Z"/><path class="cls-8" d="M384.91,114.55l-10.91,7.73s-5.91,7.28-1.14,16.83c4.78,9.55,17.74,20.69,17.74,20.69l14.27,7.95,.28-12.95-20.24-40.25Z"/><path class="cls-8" d="M554.42,259.96l-9.21,3.75,10,8.64s20.24,14.33,31.83,15.01c11.6,.68,14.23-6.56,14.23-6.56l-1.73-6.63-45.14-14.21Z"/><path class="cls-7" d="M479.53,154.81c.15,.35-.13-.31-.18-.44-.11-.26-.21-.53-.31-.79-.23-.59-.44-1.19-.64-1.79-.36-1.09-.69-2.19-.96-3.31-.28-1.13-.52-2.28-.72-3.43-.05-.27-.09-.54-.13-.81-.02-.14-.04-.27-.06-.41-.05-.36,.04,.36,0,0-.07-.57-.14-1.15-.19-1.72-.2-2.25-.23-4.52-.09-6.77,.03-.54,.07-1.07,.13-1.6,.03-.27,.05-.53,.08-.8,.02-.17,.04-.33,.06-.5,.05-.45-.03,.18,.01-.09,.17-1.09,.35-2.18,.58-3.26,.47-2.18,1.1-4.33,1.88-6.43,.19-.5,.38-1,.58-1.49,.13-.33-.14,.31,0-.01,.05-.12,.11-.25,.16-.37,.12-.28,.24-.55,.37-.82,.47-1.03,.99-2.04,1.54-3.04,1.09-1.97,2.32-3.84,3.67-5.64,.21-.28-.2,.26,.01-.02,.08-.11,.17-.21,.25-.32,.17-.21,.34-.42,.51-.63,.36-.44,.74-.88,1.12-1.31,.77-.86,1.56-1.69,2.39-2.49s1.7-1.58,2.59-2.32c.21-.18,.42-.35,.64-.52,.11-.09,.67-.52,.35-.28,.47-.36,.94-.7,1.42-1.04,1.92-1.35,3.94-2.56,6.04-3.6,.51-.25,1.03-.5,1.55-.73,.26-.12,.53-.23,.79-.35-.35,.15,0,0,.05-.02,.2-.08,.4-.16,.6-.24,1.09-.43,2.19-.82,3.3-1.17,2.22-.69,4.48-1.21,6.78-1.55,.14-.02,.27-.04,.41-.06-.09,.01-.44,.05,0,0,.27-.03,.54-.06,.81-.09,.61-.06,1.22-.12,1.83-.16,1.11-.07,2.22-.1,3.34-.09,1.11,.01,2.21,.06,3.31,.16,.53,.05,1.06,.1,1.59,.16,.13,.02,.26,.03,.4,.05-.46-.06-.1-.01,0,0,.33,.05,.66,.1,.99,.15,2.19,.37,4.36,.89,6.47,1.58,1.04,.34,2.06,.71,3.07,1.13,.12,.05,.24,.1,.37,.15-.4-.17-.07-.03,0,0,.24,.11,.48,.21,.72,.32,.54,.25,1.08,.5,1.61,.77,1.95,.99,3.83,2.12,5.62,3.38,.24,.17,.49,.35,.73,.53,.11,.08,.21,.16,.32,.24,.05,.04,.38,.29,.17,.13s.12,.09,.16,.13c.1,.08,.21,.17,.31,.25,.23,.19,.47,.38,.7,.57,.87,.73,1.72,1.5,2.53,2.29s1.56,1.59,2.3,2.42c.36,.41,.71,.82,1.05,1.24,.17,.21,.34,.42,.51,.64,.22,.28-.19-.26,.02,.03,.1,.14,.21,.27,.31,.41,1.41,1.89,2.66,3.9,3.75,5.99,.26,.5,.51,1.01,.76,1.52,.12,.26,.24,.52,.36,.78,.06,.13,.12,.26,.17,.39,.02,.05,.24,.56,.14,.32s.07,.17,.09,.22c.05,.13,.11,.26,.16,.39,.1,.26,.21,.53,.31,.79,.21,.56,.41,1.12,.6,1.69,.74,2.23,1.31,4.52,1.7,6.84,.05,.27,.09,.54,.13,.81,.02,.14,.04,.27,.06,.41-.01-.09-.05-.44,0,0,.07,.57,.13,1.15,.18,1.72,.1,1.11,.15,2.23,.16,3.34s-.02,2.29-.09,3.43c-.03,.54-.08,1.07-.13,1.6-.03,.27-.06,.53-.09,.8-.02,.13-.03,.27-.05,.4-.08,.66,.07-.47-.03,.19-.32,2.18-.78,4.34-1.4,6.45-.32,1.09-.68,2.16-1.08,3.23-.19,.5-.38,.99-.59,1.49,.18-.44-.12,.28-.16,.38-.12,.27-.24,.55-.37,.82-.94,2.03-2.03,4-3.25,5.87-.62,.96-1.28,1.89-1.97,2.79,.27-.36-.21,.26-.27,.34-.17,.21-.34,.42-.51,.63-.37,.44-.74,.88-1.12,1.3-1.52,1.7-3.16,3.29-4.91,4.74-.21,.18-.42,.35-.64,.52-.07,.06-.7,.55-.35,.28-.49,.38-.99,.74-1.5,1.1-.94,.66-1.91,1.28-2.89,1.87-1,.59-2.02,1.15-3.06,1.67-.54,.27-1.09,.53-1.64,.78-.13,.06-.26,.12-.39,.17-.05,.02-.46,.2-.22,.1s-.17,.07-.22,.09c-.17,.07-.33,.13-.5,.2-2.19,.87-4.44,1.57-6.73,2.09-1.11,.25-2.22,.46-3.35,.63-.14,.02-.27,.04-.41,.06,.44-.06,.08-.01,0,0-.27,.03-.54,.07-.81,.09-.61,.06-1.22,.12-1.83,.16-2.25,.15-4.51,.12-6.75-.07-.53-.05-1.06-.1-1.59-.17-.07,0-.49-.06-.19-.02s-.12-.02-.19-.03c-.3-.04-.59-.09-.89-.14-1.11-.19-2.22-.41-3.32-.68-2.15-.53-4.26-1.22-6.32-2.06-.06-.02-.44-.19-.19-.08,.26,.11-.13-.06-.18-.08-.24-.11-.48-.21-.72-.32-.51-.23-1.02-.48-1.52-.73-1-.51-1.99-1.05-2.95-1.64-.94-.57-1.85-1.17-2.75-1.8-.24-.17-.49-.35-.73-.53-.11-.08-.68-.51-.34-.25-.45-.35-.89-.7-1.32-1.07-1.72-1.45-3.34-3.03-4.82-4.73-.36-.41-.71-.83-1.05-1.25-.17-.21-.34-.43-.51-.64,.26,.34-.27-.36-.33-.44-.7-.94-1.36-1.91-1.98-2.91-1.21-1.94-2.27-3.98-3.18-6.08-.49-1.13-2.14-1.38-3.11-.81-1.16,.68-1.3,1.98-.81,3.11,3.87,8.95,10.57,16.56,18.96,21.53,8.15,4.83,17.82,7.13,27.28,6.41,10.08-.77,19.69-4.74,27.43-11.23,7.33-6.14,12.7-14.56,15.33-23.74,2.66-9.28,2.47-19.39-.67-28.54-3.25-9.46-9.38-17.66-17.57-23.4-7.75-5.43-17.22-8.36-26.68-8.37-9.89,0-19.79,3.19-27.81,8.98s-13.96,13.7-17.34,22.89c-3.32,9.02-3.81,19.06-1.4,28.36,.63,2.44,1.49,4.8,2.47,7.11,.48,1.13,2.14,1.38,3.11,.81,1.17-.68,1.3-1.97,.81-3.11Z"/><path class="cls-7" d="M674.26,135.41c-1.2-8.51-4.37-16.73-8.98-23.96-4.65-7.3-10.69-13.59-17.62-18.75-8.67-6.46-18.89-11.36-29.54-13.4-8.81-1.68-18.26-1.53-26.5,2.32-6.68,3.12-11.93,9.11-13.27,16.47-1.25,6.87,.76,13.79,4.04,19.82,3.99,7.31,9.88,13.59,16.37,18.75,7.8,6.21,18.68,13.82,33.6,14.67,3.67,.21,3.5-1.62,.77-2.36-2.43-.66-4.82-1.41-7.19-2.27-2.42-.88-4.29-1.64-6.49-2.65-4.28-1.96-8.42-4.26-12.34-6.87-.94-.63-1.87-1.28-2.78-1.94-.44-.32-.87-.64-1.3-.97-.11-.09-.23-.17-.34-.26l-.08-.06c-.06-.05-.2-.15-.22-.17-.14-.11-.28-.22-.42-.33-1.68-1.34-3.31-2.75-4.87-4.22-1.49-1.41-2.92-2.88-4.28-4.42-.65-.74-1.29-1.5-1.9-2.27-.14-.17-.27-.34-.41-.52h0c-.07-.09-.14-.19-.21-.28-.3-.39-.59-.79-.87-1.19-1.06-1.49-2.05-3.04-2.94-4.64-.41-.74-.8-1.49-1.16-2.25-.19-.4-.37-.8-.55-1.2-.02-.06-.05-.11-.07-.17-.08-.21-.17-.42-.26-.64-.58-1.49-1.07-3.03-1.41-4.59-.08-.34-.15-.68-.21-1.02-.04-.19-.07-.39-.1-.58-.01-.08-.03-.17-.04-.24-.12-.71-.15-1.46-.17-2.17-.02-.7-.01-1.4,.03-2.1,.02-.35,.06-.69,.09-1.03v-.08c.04-.18,.07-.36,.1-.54,.14-.79,.34-1.58,.58-2.35,.12-.39,.25-.78,.4-1.16,.02-.04,.11-.28,.16-.41,.05-.12,.14-.33,.18-.39,.35-.75,.75-1.48,1.19-2.18,.21-.34,.44-.67,.67-.99,.06-.09,.13-.18,.2-.27-.03,.04,.25-.31,.33-.41,.53-.64,1.1-1.24,1.71-1.8,.3-.28,.6-.55,.91-.81,.14-.12,.28-.23,.42-.34,.09-.07,.19-.14,.28-.21,1.42-1.03,2.95-1.9,4.55-2.62,.18-.08,.6-.25,.18-.08,.22-.09,.44-.18,.66-.26,.45-.17,.9-.33,1.35-.48,.91-.3,1.83-.56,2.75-.78,.96-.23,1.94-.41,2.92-.56,.12-.02,.24-.03,.35-.05h.01c.23-.03,.46-.06,.69-.08,.53-.06,1.07-.1,1.6-.14,2.17-.15,4.36-.13,6.53,.03,.55,.04,1.1,.09,1.65,.15,.26,.03,.52,.06,.78,.09,.15,.02,.3,.04,.45,.06h.06s.06,.02,.12,.03c1.18,.18,2.36,.38,3.53,.63,2.46,.52,4.89,1.19,7.28,2,5.16,1.75,10.02,4.14,14.75,7.07,1.96,1.21,3.87,2.51,5.7,3.89,.06,.04,.37,.29,.43,.33,.17,.13,.35,.27,.52,.41,.41,.33,.82,.66,1.23,.99,.76,.63,1.51,1.28,2.24,1.94,1.51,1.36,2.96,2.8,4.35,4.29,.71,.77,1.41,1.56,2.09,2.36,.3,.35,.59,.7,.88,1.06,.17,.2,.33,.41,.49,.61,.06,.07,.24,.31,.31,.4,2.44,3.21,4.6,6.63,6.39,10.24,.45,.91,.88,1.84,1.29,2.77,.04,.09,.16,.37,.17,.41,.08,.2,.16,.4,.24,.6,.2,.49,.39,.98,.57,1.48,.71,1.93,1.32,3.89,1.83,5.88,.5,1.98,.89,3.98,1.18,6,.01,.11,.06,.45,.07,.53,.03,.24,.06,.47,.08,.71,.06,.54,.11,1.09,.15,1.63,.08,1.06,.14,2.13,.16,3.19,.05,2.18-.03,4.36-.23,6.53-.05,.54-.1,1.07-.17,1.61-.03,.22-.05,.44-.08,.66,0,.05-.02,.11-.02,.13-.03,.18-.05,.36-.08,.54-.17,1.13-.37,2.25-.61,3.37-.48,2.31-1.1,4.59-1.83,6.84-.76,2.33-1.66,4.63-2.56,6.63-2.24,4.98-5.03,9.7-8.18,14.15-1.63,2.31-3.28,4.61-5.2,6.69-1.72,1.86-.55,3.15,2.03,1.61,9.12-5.46,14.81-17.09,18.36-28.09,2.91-9.01,3.8-18.53,2.48-27.9Zm-83.77-13.41c-.21-.27-.07-.09,0,0h0Zm11.99-38.86c-.12,.02-.27,.03,0,0h0Z"/><path class="cls-7" d="M463.82,42.18l-.02,.18s0,.02,.02-.19h0v.02Z"/><path class="cls-7" d="M465.89,57.15c-.1-.25-.1-.26-.08-.2l.07,.18v.02Z"/><path class="cls-7" d="M534.78,22.15c.47,.34,.93,.7,1.4,1.05l.03,.02c.1,.08,.2,.15,.29,.23,.05,.04,.1,.08,.15,.12l4.34-2.33c-1.39-1.14-2.82-2.23-4.27-3.27-5.61-4.06-11.78-7.39-18.35-9.59-8.13-2.73-16.94-3.47-25.32-1.44-4.87,1.18-9.53,3.29-13.71,6.04-4.4,2.89-8.48,6.42-11.8,10.51-5.33,6.57-8.7,14.63-8.49,23.18,.18,7.17,2.75,14.22,7.11,19.9,4.06,5.28,9.62,9.62,16.13,11.34,3.12,.82,6.35,.97,9.52,.39,3.61-.67,6.94-2.48,9.76-4.78,6.19-5.03,8.99-13.08,8.93-20.88-.06-8.11-1.66-14.67-5.66-20.06-2.61-3.52-5.22-5.61-8.87-6.71-2.27-.68-3.18,.34-.73,2.67,.71,.67,1.42,1.34,2.08,2.06,.31,.34,.61,.68,.91,1.03,.14,.16,.27,.33,.41,.49,.08,.09,.15,.19,.23,.29l.04,.05c1.15,1.55,2.2,3.15,3.11,4.86,.46,.86,.88,1.75,1.27,2.64l.03,.07s.03,.08,.06,.15c.08,.2,.16,.4,.24,.6,.19,.48,.36,.97,.53,1.46,.61,1.8,1.08,3.65,1.41,5.53,.04,.24,.08,.47,.11,.71,.01,.08,.02,.15,.03,.23,.05,.46,.11,.92,.15,1.38,.08,.94,.12,1.88,.12,2.82,0,.9-.04,1.8-.12,2.7-.02,.23-.04,.46-.07,.69-.01,.09-.07,.5-.06,.46-.02,.15-.05,.34-.06,.38-.04,.25-.09,.51-.14,.76-.17,.86-.37,1.71-.62,2.55-.12,.4-.25,.8-.39,1.2-.07,.21-.15,.42-.23,.63-.04,.1-.11,.26-.14,.36-.71,1.59-1.56,3.08-2.6,4.49l-.02,.03s-.05,.06-.09,.1c-.12,.15-.25,.3-.38,.45-.31,.36-.64,.72-.97,1.06-.58,.59-1.21,1.13-1.85,1.66-.07,.05-.3,.23-.37,.28-.19,.14-.38,.27-.58,.4-.4,.27-.8,.52-1.22,.76-.4,.23-.8,.45-1.21,.65-.19,.1-.39,.19-.59,.29-.05,.03-.24,.11-.36,.16-.11,.04-.25,.1-.29,.11-.15,.06-.29,.11-.44,.16-.36,.13-.72,.24-1.08,.34-.66,.18-1.33,.31-2,.43h-.05c-.15,.02-.3,.04-.46,.05-.37,.03-.74,.05-1.11,.06-.68,.02-1.36,0-2.04-.06-.18-.01-.35-.03-.53-.05-.17-.14-.82-.13-1.04-.17-.7-.14-1.4-.31-2.09-.52-.7-.21-1.38-.47-2.06-.73h-.03c-.15-.08-.3-.14-.44-.21-.36-.17-.71-.34-1.06-.52-1.33-.69-2.6-1.49-3.8-2.38-.13-.1-.61-.49-.12-.08-.13-.11-.27-.21-.4-.32-.3-.25-.6-.5-.9-.75-.59-.52-1.17-1.06-1.72-1.63-.54-.55-1.07-1.13-1.57-1.72-.25-.29-.48-.58-.72-.88-.03-.04-.04-.06-.06-.08l-.05-.06c-.14-.18-.27-.37-.41-.55-.93-1.29-1.78-2.65-2.52-4.06-.38-.72-.72-1.46-1.05-2.21l.02,.06s-.02-.05-.03-.08v-.03s-.06-.11-.07-.15v-.03c-.08-.17-.15-.34-.21-.51-.16-.42-.31-.84-.45-1.26-.52-1.56-.93-3.17-1.2-4.79-.04-.21-.07-.43-.1-.64v.12c0-.06,0-.11,0-.17-.01-.08-.02-.17-.02-.15h0c-.05-.43-.09-.86-.13-1.3-.06-.85-.09-1.7-.09-2.55,0-.89,.05-1.78,.14-2.67,.02-.2,.04-.39,.06-.59v-.06s.02-.12,.03-.18c0-.03,0-.07,.01-.1v.09c.06-.45,.13-.9,.22-1.34,.35-1.83,.87-3.63,1.55-5.37,.08-.22,.17-.43,.26-.65,.04-.09,.08-.17,.11-.26,.2-.46,.42-.92,.64-1.37,.46-.93,.97-1.84,1.51-2.72,.57-.93,1.18-1.83,1.82-2.7,.06-.08,.12-.17,.19-.25,.02-.02,.1-.13,.15-.19,.05-.07,.13-.16,.14-.18,.07-.08,.13-.17,.2-.25,.39-.48,.78-.95,1.19-1.41,1.61-1.84,3.38-3.54,5.24-5.12,1.91-1.61,3.88-3.05,6.12-4.4,1.04-.62,2.1-1.21,3.18-1.75,.51-.25,1.02-.49,1.54-.72,.14-.06,.27-.12,.41-.18l.07-.03c.3-.13,.61-.25,.92-.37,2.04-.79,4.14-1.41,6.27-1.85,.53-.11,1.06-.21,1.6-.3,.23-.04,.47-.06,.7-.11h.02c.16-.02,.31-.04,.47-.06,1.04-.12,2.09-.2,3.14-.24,1.98-.07,3.96,0,5.93,.21,.25,.03,.5,.06,.75,.09,.08,.01,.16,.02,.24,.03h.08c.49,.09,.98,.16,1.47,.25,.94,.17,1.87,.36,2.79,.58,1.83,.44,3.64,.98,5.41,1.62,.88,.31,1.74,.65,2.6,1,.06,.03,.13,.05,.19,.08,.2,.09,.4,.17,.6,.26,.41,.18,.82,.37,1.23,.56,2.96,1.38,5.82,2.99,8.56,4.77,1.16,.76,2.31,1.55,3.43,2.37Zm-48.92,51.85s-.09-.01-.14-.02c-.31-.03-.01,0,.14,.02Z"/><path class="cls-7" d="M463.83,49.69c-.01-.12-.02-.16-.02-.17,0,.05,.01,.1,.02,.15v.02Z"/><path class="cls-7" d="M373.86,126.64c-.09,.26-.1,.53,0,0h0Z"/><path class="cls-7" d="M402.67,166.2c-3.14-2.25-5.9-4.33-8.78-6.66-4.62-3.75-9.09-7.75-13.01-12.25-.39-.45-.78-.9-1.16-1.36-.2-.24-.4-.49-.59-.73-.1-.12-.19-.24-.29-.36h0v-.02c-.67-.89-1.33-1.79-1.94-2.72-.55-.85-1.08-1.72-1.56-2.61-.21-.4-.42-.8-.62-1.21-.1-.22-.2-.43-.3-.65-.03-.07-.06-.14-.1-.22h0c-.57-1.48-1-2.95-1.28-4.5-.01-.07-.03-.14-.03-.17-.02-.19-.04-.38-.05-.58-.03-.38-.04-.76-.03-1.14,0-.34,.02-.68,.05-1.02,.01-.14,.03-.28,.04-.42l.02-.11c.11-.67,.28-1.32,.49-1.96,.1-.3,.29-.62,.35-.93v.07s.01-.07,.03-.1c.08-.16,.16-.33,.24-.49,.33-.63,.7-1.24,1.12-1.81,.05-.07,.3-.33,.33-.43l.02-.02c.25-.3,.51-.6,.78-.89,.54-.57,1.11-1.12,1.7-1.63,.28-.24,.57-.48,.87-.71,.04-.03,.07-.05,.11-.08,.21-.16,.42-.31,.63-.46,1.49-1.05,3.07-1.97,4.7-2.79,.88-.45,1.78-.86,2.69-1.26,.1-.04,.2-.09,.31-.13h.03c.21-.1,.43-.19,.64-.28,.53-.21,1.06-.42,1.59-.61,.07-.02,.13-.05,.2-.07-.48-1.56-.87-3.05-1.18-4.38-1.48,.55-2.94,1.13-4.38,1.77-6.36,2.83-12.99,7.22-15.2,14.19-2.33,7.32,1.46,14.91,5.82,20.63,3.53,4.63,7.66,8.73,12.05,12.53,5.88,5.1,12.17,9.73,18.6,14.1l.03,.02-.72-6c-.73-.51-1.46-1.03-2.19-1.55Z"/><path class="cls-7" d="M530.14,295.07s-.03,.01-.1,.04l.04-.02,.07-.03Z"/><path class="cls-7" d="M543.12,262.59c.04,.21,.1,.42,.14,.64,.14,.71,.27,1.43,.38,2.15,.03,.16,.05,.33,.07,.49v.06c.05,.37,.1,.74,.14,1.12,.14,1.34,.22,2.69,.23,4.04,.01,1.32-.04,2.65-.18,3.97-.03,.29-.07,.58-.1,.87h0c-.03,.17-.05,.34-.08,.51-.1,.63-.22,1.25-.36,1.87-.27,1.22-.62,2.42-1.04,3.59-.1,.27-.2,.54-.3,.8-.04,.1-.08,.21-.12,.31-.02,.04-.04,.09-.06,.13-.25,.56-.52,1.12-.8,1.66-.59,1.13-1.27,2.22-2.02,3.25-.1,.13-.19,.26-.29,.39h0l-.03,.05c-.22,.27-.44,.54-.67,.8-.45,.52-.92,1.01-1.41,1.49-.48,.47-.99,.92-1.51,1.34-.03,.02-.13,.1-.2,.16-.07,.06-.17,.13-.2,.15-.27,.2-.54,.39-.82,.58-1.11,.75-2.29,1.4-3.51,1.95-.08,.03-.15,.07-.23,.1,0,0-.02,.01-.07,.03-.05,.02-.09,.04-.14,.06,.04-.02,.07-.03,.1-.04-.04,.02-.08,.03-.14,.06-.34,.13-.69,.27-1.03,.39-.63,.22-1.27,.42-1.91,.6-.68,.19-1.37,.35-2.07,.49-.33,.07-.65,.13-.98,.18-.19,.03-.39,.06-.58,.09-.06,0-.12,.02-.18,.03-3.09,.34-6.18,.39-9.28,.13-.81-.07-1.62-.16-2.43-.25-.09-.01-.19-.02-.28-.04h0c-.2-.03-.4-.06-.6-.09-.44-.06-.87-.13-1.31-.21-1.81-.31-3.61-.68-5.39-1.11-8.03-1.94-15.78-4.93-23.1-8.29-8.97-4.11-17.62-8.9-26.03-14.03-4.45-2.71-8.83-5.53-13.16-8.43-8.33-5.59-16.47-11.47-24.23-17.81-6.88-5.62-13.5-11.59-19.53-18.13-1.34-1.45-2.64-2.93-3.91-4.44-.62-.74-1.23-1.49-1.83-2.25-.14-.17-.27-.34-.41-.52-.05-.06-.24-.31-.29-.37-.05-.07-.23-.31-.28-.37-.17-.23-.34-.46-.52-.69-2.05-2.75-3.95-5.62-5.6-8.63-.77-1.4-1.48-2.84-2.13-4.3-.02-.04-.09-.2-.13-.3-.04-.1-.11-.26-.12-.3-.15-.38-.3-.76-.44-1.14-.25-.67-.48-1.34-.7-2.02-.43-1.35-.78-2.73-1.04-4.13-.06-.31-.11-.63-.16-.94-.02-.16-.04-.31-.07-.47,.08,.52,.01,.07-.02-.17-.07-.64-.12-1.28-.15-1.92-.05-1.31,0-2.61,.14-3.92v-.06c.03-.12,.04-.25,.06-.37,.05-.32,.11-.64,.17-.95,.13-.63,.29-1.26,.47-1.88,.18-.62,.39-1.24,.63-1.85,.05-.14,.11-.27,.16-.41v-.03c.17-.32,.31-.65,.47-.97,.59-1.19,1.28-2.34,2.05-3.42,.16-.23,.33-.45,.5-.68,.04-.05,.08-.1,.12-.15,.11-.14,.23-.28,.34-.42,.43-.51,.88-1.01,1.34-1.48,.45-.46,.91-.91,1.39-1.34,.25-.22,.51-.44,.76-.66,.12-.1,.24-.2,.36-.3,.06-.05,.14-.11,.2-.15,2.2-1.64,4.55-2.94,7.05-4.07l.09-.04c.16-.06,.31-.13,.47-.19,.37-.15,.74-.29,1.11-.42,.68-.24,1.36-.47,2.05-.68,1.47-.45,2.96-.82,4.46-1.13l-4.77-3.5c-4.99,1.42-9.74,3.66-13.81,6.93-4.41,3.54-7.84,8.45-9.4,13.9-1.59,5.54-1.12,11.47,.57,16.92,2.03,6.52,5.58,12.49,9.63,17.94,5.03,6.75,10.84,12.88,17.01,18.59,7.26,6.72,15.01,12.91,22.98,18.76,4.15,3.04,8.36,5.99,12.63,8.85,8.88,5.95,17.99,11.57,27.43,16.61,8.26,4.41,16.78,8.41,25.62,11.51,7.26,2.55,14.82,4.52,22.53,5.02,6.22,.41,12.59-.3,18.27-2.99,5.17-2.45,9.37-6.72,11.98-11.78,2.5-4.86,3.6-10.3,3.56-15.75,0-1.4-.09-2.8-.23-4.2l-5.27-4.38Zm-31.97,34.19c.42,.05,.1,.01,0,0h0Z"/><path class="cls-7" d="M404.86,167.74l-7.45,1.83-12.05,6.82-7.5,12.73s-.23,16.83,8.19,29.1c8.41,12.28,26.6,30.47,57.98,51.62,31.38,21.15,61.85,32.06,80.72,29.79,18.87-2.27,22.06-24.33,22.06-24.33l-1.59-11.6-3.87-.91s-20.69,7.73-57.07-12.73c-36.38-20.46-60.48-45.02-60.48-45.02l-16.37-22.74-2.56-14.56Z"/><path class="cls-7" d="M590.46,285.46c-.41-.02-.24,0,0,0h0Z"/><path class="cls-7" d="M593.68,284.59c-.56,.17-.23,.09,0,0h0Z"/><path class="cls-7" d="M607.01,241.94c-.75-6.48-1.79-12.91-3.03-19.31-1.26-6.52-2.73-13-4.33-19.44l-3.15,6.25c2.22,9.36,4.12,18.79,5.44,28.31,.01,.1,.08,.57,.09,.66,.04,.3,.08,.59,.12,.89,.1,.76,.19,1.53,.28,2.29,.17,1.43,.32,2.86,.45,4.29,.25,2.69,.43,5.39,.53,8.09,.09,2.46,.1,4.92,0,7.38-.04,1.14-.11,2.27-.2,3.4-.04,.52-.09,1.04-.15,1.56-.03,.25-.06,.51-.09,.76-.01,.13-.03,.25-.05,.38,0,.06,0,.14,0,.2-.02,.38-.14,.8-.19,1.15-.08,.51-.17,1.02-.27,1.53-.18,.93-.39,1.86-.64,2.77-.23,.86-.49,1.71-.79,2.55-.14,.38-.28,.76-.43,1.14l-.02,.06-.02,.04c-.09,.21-.19,.42-.28,.62-.33,.71-.7,1.4-1.11,2.07-.19,.31-.39,.61-.59,.91-.1,.15-.21,.29-.31,.43l-.03,.04-.05,.06c-.46,.55-.93,1.07-1.45,1.56-.24,.22-.49,.43-.74,.64h-.01c-.16,.12-.31,.23-.47,.34-.55,.37-1.13,.7-1.73,.98-.03,.01-.06,.02-.09,.04,.03,0,.06-.02,.1-.03-.16,.05-.31,.13-.47,.19-.35,.13-.7,.24-1.05,.35-.34,.1-.67,.18-1.02,.25-.17,.04-.35,.07-.52,.1-.07,.01-.17,.02-.26,.02,.05,0,.09,0,.15,0-.77-.04-1.58,.14-2.36,.14-.85,0-1.7-.06-2.55-.16h-.09l-.05-.02c-.22-.03-.44-.07-.65-.11-.49-.08-.97-.18-1.45-.29-2.08-.47-4.11-1.14-6.09-1.93-.26-.1-.52-.21-.78-.32-.13-.06-.26-.11-.39-.17-.55-.24-1.09-.49-1.63-.74-1.2-.57-2.39-1.17-3.56-1.8-2.66-1.43-5.23-3-7.76-4.65-2.95-1.93-5.82-3.98-8.63-6.1-1.55-1.17-2.75-2.11-4.38-3.41-1.4-1.12-2.78-2.26-4.16-3.41l-5.39,1.38c5.21,4.44,10.56,8.72,16.15,12.66,4.98,3.52,10.17,6.81,15.71,9.38,4.21,1.96,8.59,3.53,13.22,4.07,3.47,.41,6.97,0,10.16-1.45,2.93-1.33,5.29-3.69,7-6.38,1.95-3.06,3.11-6.62,3.83-10.16,.93-4.51,1.25-9.14,1.27-13.74,.02-5.46-.38-10.91-1.01-16.33Z"/><path class="cls-7" d="M613.53,283.42h.01c-.68,0-.22,.03-.01,0Z"/><path class="cls-7" d="M604.26,282.48c.05,.01-.09-.07-.26-.11,.01,0,.03,.01,.04,.02,.07,.03,.15,.06,.22,.09Z"/><path class="cls-7" d="M675.75,181.22s.06,.03,.11,.06c-.05-.02-.08-.04-.1-.05h-.01Z"/><path class="cls-7" d="M685.5,201.65s-.02,.02-.02,.04c0-.01,.01-.03,.02-.03h0Z"/><path class="cls-7" d="M524.69,31.96c10.59-5.82,21.41-11.02,32.62-15.12,5-1.83,10.08-3.44,15.25-4.71,2.38-.59,4.78-1.1,7.2-1.52,.55-.09,1.09-.18,1.64-.27,.27-.04,.54-.08,.81-.12,.13-.02,.27-.04,.4-.06h.1c1.11-.16,2.23-.28,3.35-.38,2.09-.18,4.18-.27,6.28-.24,1,.01,2.01,.06,3.01,.13,.46,.03,.92,.07,1.37,.12,.23,.02,.45,.05,.68,.08,.11,.01,.22,.03,.34,.04h.06c1.81,.28,3.6,.65,5.35,1.18,.81,.25,1.6,.53,2.39,.84,.07,.03,.14,.06,.21,.08,.19,.08,.38,.17,.56,.25,.38,.18,.76,.36,1.13,.56,.72,.37,1.41,.78,2.09,1.22,.34,.22,.67,.45,1,.69,.03,.02,.18,.13,.28,.21,.1,.08,.28,.22,.33,.26,1.28,1.05,2.46,2.22,3.54,3.48,.26,.31,.51,.62,.77,.93l.02,.03s.06,.08,.09,.12c.15,.21,.31,.41,.46,.62,.51,.7,.99,1.43,1.44,2.16,.99,1.6,1.86,3.28,2.65,4.99,.1,.21,.19,.42,.28,.63,.02,.05,.14,.33,.2,.45,.05,.13,.17,.41,.19,.46,.1,.25,.2,.5,.3,.75,.38,.96,.73,1.94,1.05,2.92,.69,2.07,1.29,4.18,1.8,6.3,.54,2.24,1,4.5,1.38,6.77,.2,1.21,.39,2.42,.55,3.63v.05c.03,.15,.04,.29,.06,.44,.04,.29,.07,.59,.11,.88,.08,.63,.15,1.26,.22,1.89,1.13,10.58,1.1,21.27,.47,31.88l4.44,1.83c.42-6.3,.61-12.62,.51-18.94-.17-10.29-1.07-20.71-3.62-30.7-2-7.82-5.11-15.67-10.54-21.77-4.89-5.49-11.61-8.52-18.82-9.52-9.16-1.27-18.52,.09-27.43,2.29-11.18,2.76-21.98,7.04-32.4,11.9-11.74,5.47-23.06,11.83-34,18.74l1.5,4.43c6-3.81,12.11-7.45,18.34-10.88Z"/><path class="cls-7" d="M617.03,145.25c-1.4,5.61-2.93,11.19-4.59,16.72-3.65,12.17-7.96,24.33-12.99,35.88-4.6,10.55-9.84,20.88-16.13,30.53-7.78,11.93-17.67,23.18-30.78,29.34-10.6,4.98-22.59,5.54-33.94,3.12-13.25-2.82-25.59-8.91-37.23-15.67-6.42-3.73-12.67-7.74-18.83-11.87-12.19-8.18-24.23-16.84-34.67-27.22-8.65-8.59-16.34-18.67-19.84-30.33-3.64-12.13-2.08-24.73,2.68-36.53,.34-.84,.7-1.68,1.07-2.51l-4.24-1.59c-3.45,7.78-5.75,16.03-6.09,24.58-.49,12.45,3.7,24.44,10.64,34.66,7.89,11.64,18.56,21.11,29.63,29.65,6.01,4.63,12.23,8.99,18.53,13.22,12.57,8.42,25.54,16.44,39.53,22.32,11.67,4.9,24.46,8.27,37.21,7.02,13.32-1.31,25.17-7.63,34.79-16.79,9.92-9.46,17.44-21.27,23.81-33.33,5.89-11.15,10.82-22.81,15.11-34.66,4.09-11.31,7.58-22.84,10.52-34.51l-4.18-2Z"/><path class="cls-7" d="M689.3,190.1c-1.43-4.9-4.59-9.08-9.01-11.67-4.75-2.79-10.44-3.67-15.89-3.55l-3.12,4.72c2.35-.21,4.71-.26,7.07-.07,.32,.03,.64,.06,.96,.09,.18,.02,.35,.04,.53,.06h.07c.65,.11,1.29,.22,1.93,.36,1.21,.26,2.4,.61,3.56,1.04,.12,.04,.23,.09,.35,.14h.01l.03,.02c.36,.14,.21,.1,.08,.04,.22,.1,.67,.3,.72,.32,.51,.25,1.02,.52,1.51,.81,.48,.29,.95,.59,1.4,.92,.08,.06,.15,.11,.23,.17h.01c.22,.2,.45,.38,.67,.58,.41,.36,.79,.74,1.16,1.14,.17,.19,.34,.38,.5,.57,.08,.1,.16,.2,.24,.29l.02,.02c.63,.9,1.22,1.81,1.7,2.81,.09,.19,.17,.53,.31,.69,.06,.14,.11,.29,.17,.44,.2,.55,.38,1.11,.53,1.67,.16,.58,.29,1.17,.4,1.77,.05,.27,.09,.54,.13,.82h0c.02,.19,.04,.38,.06,.57,.13,1.34,.16,2.69,.1,4.04-.03,.72-.09,1.44-.16,2.16-.02,.17-.04,.35-.06,.52v.07h0c0,.05-.01,.1-.02,.15-.03,.29-.04,0,0-.11-.08,.18-.13,.97-.15,1.1-.57,3.39-1.54,6.7-2.74,9.92-.17,.45-.34,.89-.52,1.34-.08,.21-.17,.42-.25,.63-.04,.09-.07,.18-.11,.27,0,0-.08,.18-.12,.28-.05,.11-.17,.39-.19,.46-.11,.25-.22,.49-.33,.74-.21,.47-.42,.94-.64,1.41-.92,1.98-1.92,3.92-2.97,5.83-5.15,9.34-11.58,17.93-18.47,26.05-6.34,7.47-13.14,14.63-20.72,20.85-.39,.32-.79,.64-1.19,.96-.18,.15-.37,.29-.55,.44-.07,.05-.28,.22-.38,.29-.74,.57-1.49,1.13-2.25,1.68-1.45,1.05-2.93,2.05-4.45,3-1.38,.86-2.79,1.68-4.23,2.43-.67,.35-1.35,.69-2.03,1.01-.33,.15-.66,.31-.99,.45-.15,.07-.31,.13-.46,.2h-.02s-.06,.03-.09,.05c-2.36,.96-4.79,1.75-7.31,2.2-.26,.05-.52,.09-.78,.13h.03c-.15,0-.3,.04-.44,.05-.54,.06-1.08,.1-1.62,.13-1.02,.05-2.04,.03-3.05-.07-.22-.02-.45-.07-.68-.08,.88,.04,0,0-.25-.05-.46-.08-.92-.18-1.37-.3-.44-.11-.88-.25-1.31-.4-.2-.07-.39-.14-.59-.22h-.01s-.08-.03-.18-.08l-.04-.02s-.07-.03-.1-.04c.02,0,.04,0,.06,.01-.77-.36-1.51-.76-2.22-1.22-.17-.11-.34-.23-.5-.34-.07-.05-.14-.1-.21-.15-.14-.12-.29-.24-.43-.36-.8,1.23-1.71,2.47-2.72,3.62,2.05,1.66,4.44,2.89,7,3.57,4.58,1.2,9.47,.72,13.96-.6,6.26-1.84,12.05-5.2,17.31-9,7.62-5.51,14.44-12.05,20.77-18.98,7.75-8.48,15.01-17.55,21.1-27.3,4.54-7.28,8.57-15.13,10.75-23.47,1.52-5.81,2.19-12.17,.48-18.02Z"/><path class="cls-7" d="M467.21,70.42c0-.05-.02-.11-.02-.16-.01-.07-.01-.06,.03,.18h0Z"/><path class="cls-7" d="M465.43,62.97c.31,.9,.58,1.81,.83,2.74,.26,.98,.48,1.97,.67,2.97,.09,.48,.17,.97,.24,1.45,0,.04,.01,.09,.02,.13,0,.05,.02,.12,.02,.16v.01c.04,.3,.07,.6,.11,.9,.2,1.98,.26,3.98,.16,5.97-.02,.48-.06,.95-.1,1.43-.02,.24-.05,.47-.07,.71-.01,.12-.03,.24-.04,.35v.03c-.15,.95-.31,1.89-.53,2.83-.22,.96-.49,1.91-.8,2.84-.15,.43-.3,.87-.47,1.29-.06,.15-.12,.3-.18,.46,0,0-.17,.39-.22,.5-.78,1.7-1.75,3.26-2.83,4.77-.06,.08-.12,.15-.18,.23-.14,.17-.29,.35-.43,.52-.31,.36-.64,.72-.98,1.06-.65,.66-1.34,1.27-2.06,1.86-.08,.06-.26,.2-.33,.26-.19,.14-.38,.27-.57,.4-.41,.28-.83,.55-1.27,.81-.81,.48-1.65,.89-2.51,1.28-.03,.01-.38,.16-.48,.2-.23,.09-.47,.18-.71,.26-.5,.18-1,.34-1.51,.49-.83,.24-1.67,.44-2.52,.59-.21,.04-.41,.07-.62,.1,0,0-.1,.02-.17,.03-.05,0-.11,.01-.16,.02,.05,0,.09-.01,.13-.02-.47,.05-.94,.1-1.41,.13-.86,.05-1.72,.06-2.58,.03-.41-.02-.83-.04-1.24-.08-.21-.02-.41-.04-.62-.06-.07,0-.14-.02-.22-.03h-.03c-.87-.15-1.73-.31-2.59-.52-.8-.2-1.6-.44-2.38-.72-.39-.14-.78-.28-1.17-.44h-.02s-.11-.05-.15-.07h-.03s-.06-.04-.08-.05l.06,.02c-.22-.1-.45-.2-.67-.3-1.58-.73-3.09-1.6-4.52-2.59-.35-.24-.7-.49-1.04-.74l-.04-.03s-.1-.07-.14-.1h0s-.05-.04-.08-.06l.06,.05c-.2-.16-.41-.32-.61-.49-.68-.57-1.34-1.16-1.98-1.77-.64-.62-1.26-1.27-1.85-1.94-.29-.33-.57-.66-.85-.99-.14-.17-.27-.34-.4-.5l.05,.06-.06-.08s-.1-.14-.11-.15c-.03-.03-.05-.07-.08-.1-1.1-1.48-2.09-3.04-2.94-4.67-.42-.79-.79-1.61-1.16-2.43-.04-.09-.08-.19-.11-.28-.08-.21-.16-.42-.24-.62-.17-.44-.33-.89-.48-1.34-.58-1.77-1.02-3.59-1.3-5.43v-.08s-.03-.12-.04-.17v-.05c-.03-.21-.06-.42-.08-.63-.05-.51-.1-1.03-.13-1.55-.05-.96-.07-1.92-.04-2.88,.03-.98,.12-1.95,.22-2.92v-.06c.02-.07,.03-.15,.03-.15v-.08c.05-.24,.09-.48,.13-.71,.09-.51,.19-1.02,.3-1.52,.22-1,.49-1.99,.8-2.96,.15-.48,.32-.96,.5-1.44,.09-.24,.18-.48,.27-.72,.05-.12,.1-.24,.14-.36l.04-.1,.04-.08c.91-2.05,1.97-4.02,3.21-5.89,.32-.48,.64-.95,.98-1.41,.17-.24,.35-.47,.52-.7,.02-.02,.07-.09,.11-.14,.09-.12,.19-.24,.29-.36,.79-.98,1.62-1.94,2.48-2.85,1.72-1.83,3.86-3.8,5.68-5.19,.05-.04,.22-.17,.25-.19,.12-.09,.23-.17,.35-.26,.23-.17,.47-.34,.7-.51,.49-.35,.99-.69,1.5-1.01,.96-.61,1.94-1.19,2.94-1.72,.47-.25,.95-.49,1.44-.72,.24-.11,.48-.23,.72-.33,.07-.03,.45-.2,.55-.24,.98-.41,1.97-.77,2.98-1.1,1.96-.63,3.96-1.09,6-1.4,.05,0,.09-.01,.14-.02,.05,0,.12-.02,.17-.02h.02c.24-.03,.47-.06,.71-.09,.54-.06,1.09-.11,1.63-.14,.96-.06,1.92-.1,2.89-.09,1.01,0,2.03,.04,3.04,.11,.47,.03,.95,.07,1.42,.12,.24,.02,.47,.05,.71,.08,.12,.01,.24,.03,.35,.04l.18,.02c.1,.01,.48,.07,.54,.08,.23,.04,.47,.07,.7,.11,.28,.05,.57,.1,.85,.15,.72-1.7,1.48-3.08,2.19-4.19-3.75-.77-7.57-1.17-11.42-1.04-9.55,.31-18.45,3.91-25.78,9.99-7.57,6.28-13.69,14.9-15.45,24.72-1.47,8.2,0,16.66,4.09,23.93,3.73,6.65,9.62,12.27,16.66,15.28,3.55,1.52,7.32,2.42,11.2,2.48,4.14,.06,8.21-.89,11.96-2.62,7.68-3.54,12.78-10.88,14.61-19.01,1.01-4.46,1.15-9.06,.57-13.57-1.38-1.24-3.93-3.74-6.29-7.16Z"/><path class="cls-7" d="M429.15,95.15s.02,.02-.15-.12h.01l.14,.12Z"/><path class="cls-7" d="M416.83,65.98c.02-.12,.02-.17,.02-.17l-.02,.15v.02Z"/><path class="cls-7" d="M423.31,89.33h0c-.1-.13-.13-.16-.12-.15,.04,.05,.08,.1,.11,.15h0Z"/><path class="cls-7" d="M416.87,74.21c.01,.07,.01,.06-.03-.22v.02c.01,.07,.02,.13,.03,.2Z"/><path class="cls-7" d="M447.9,100.6c.05,0,.1-.02,.16-.02h.01s-.05,0-.2,.03h.03Z"/><path class="cls-7" d="M435.61,98.89c.05,.02,.04,.01-.2-.08h.02l.18,.08Z"/><path class="cls-7" d="M449.9,33.79c-.07,.01-.08,.01,.18-.03h-.01c-.06,0-.11,.02-.17,.03Z"/><path class="cls-7" d="M435.07,101.22c.02,.08,.04,.15,.06,.23,.23,.88,.44,1.76,.61,2.65,.08,.43,.16,.86,.23,1.29,.04,.22,.07,.43,.1,.65,.01,.09,.03,.19,.04,.28,0,.04,.01,.08,.02,.13,.22,1.81,.32,3.63,.3,5.46-.01,.88-.06,1.77-.14,2.65-.04,.42-.08,.84-.13,1.26,0,.03,0,.06-.01,.09,0,.04-.01,.09-.02,.11-.04,.24-.07,.47-.11,.71-.29,1.71-.71,3.4-1.28,5.04-.13,.38-.27,.76-.42,1.14-.08,.19-.25,.59-.07,.18-.09,.21-.18,.42-.28,.63-.36,.78-.75,1.53-1.19,2.27-.42,.71-.87,1.38-1.36,2.04-.03,.05-.05,.07-.07,.1l-.04,.04c-.12,.15-.25,.31-.37,.46-.29,.34-.59,.68-.9,1.01-.57,.59-1.17,1.15-1.8,1.68-.05,.04-.2,.16-.29,.24-.09,.07-.29,.22-.33,.25-.37,.27-.76,.53-1.15,.78-.72,.46-1.48,.87-2.25,1.23-.14,.06-.27,.13-.41,.19,.03-.02-.26,.11-.38,.16-.42,.16-.83,.31-1.26,.45-.74,.24-1.5,.44-2.26,.6-.35,.07-.69,.13-1.04,.18h-.09c-.2,.03-.4,.05-.6,.07-.72,.06-1.44,.08-2.17,.05-.37-.01-.74-.03-1.11-.06-.17-.01-.34-.03-.52-.05-.05,0-.1-.01-.15-.02-1.44-.25-2.85-.58-4.23-1.08-.16-.06-.33-.12-.49-.18-.03-.01-.15-.06-.25-.1-.09-.04-.27-.11-.32-.14-.18-.08-.37-.17-.55-.25-.69-.33-1.37-.69-2.02-1.08-.65-.38-1.28-.79-1.89-1.22-.29-.2-.56-.41-.84-.62-.05-.04-.1-.08-.15-.11-.17-.13-.33-.27-.49-.4-1.22-1.02-2.36-2.13-3.43-3.31-.53-.59-1.04-1.21-1.54-1.83h0c-.05-.07-.1-.14-.15-.2-.12-.16-.23-.31-.35-.47-.25-.34-.49-.68-.72-1.03-.94-1.38-1.78-2.83-2.53-4.32-.36-.71-.69-1.43-1.01-2.15-.03-.08-.08-.2-.12-.28-.08-.19-.15-.37-.22-.56-.17-.43-.33-.86-.48-1.3-.55-1.59-1-3.21-1.35-4.86-.08-.4-.16-.8-.23-1.2-.04-.23-.08-.46-.11-.69-.02-.1-.05-.31-.06-.41-.1-.79-.18-1.58-.23-2.38-.1-1.73-.08-3.46,.07-5.18,.03-.37,.08-.73,.12-1.1,.01-.09,.03-.23,.04-.32,.04-.23,.07-.47,.11-.7,.15-.88,.34-1.75,.57-2.62,.22-.84,.48-1.68,.77-2.5,.14-.4,.29-.8,.45-1.19,.04-.09,.07-.18,.11-.27,.11-.24,.21-.47,.31-.71,.77-1.66,1.68-3.25,2.72-4.75,.26-.37,.53-.74,.8-1.11l.02-.03c.08-.1,.15-.19,.23-.29,.17-.21,.34-.41,.51-.62,.64-.76,1.31-1.48,2-2.18,3.34-3.34,6.92-5.96,11.2-8.12,.47-.24,.94-.46,1.41-.68,.23-.11,.47-.21,.71-.32,.03-.01,.13-.05,.18-.08,.1-.04,.19-.08,.29-.12,.34-.14,.69-.27,1.03-.4-.12-1.68-.15-3.29-.13-4.77-.23,.08-.47,.15-.7,.24-4.67,1.7-8.94,4.15-12.84,7.2-3.6,2.81-6.81,6.08-9.28,9.93-4.1,6.4-5.86,14.17-5.17,21.73,.66,7.25,3.24,14.36,7.5,20.28,4,5.56,9.41,10.24,16,12.4,6.61,2.16,13.99,1.12,19.77-2.75,6.27-4.2,9.99-11.15,11.17-18.49,.77-4.81,.65-9.71-.28-14.46-1.25-.41-3.04-1.05-5.1-1.98Zm1.05,5.07c-.02-.12-.01-.1,0,0h0Zm-39.52-21.62c.16-.21,.07-.09,0,0h0Zm39.57,31.17c0-.05,0-.04,0,0h0Z"/><path class="cls-7" d="M403.1,160.48c-14.55-9.55-25.51-22.53-25.52-31.49-.01-8.96,10.06-14.89,10.06-14.89l3.87,4.09,6.37,11.14,11.14,7.5-3.41,12.05-2.5,11.6Z"/><path class="cls-7" d="M551.27,261.41c12.96,10.23,42.72,29.5,49.97,16.54,5.51-9.85,5.03-28.56,5.03-28.56l-5.8-29.33-3.97-10.62-8.99,18.12s-11.34,21.23-36.24,33.85Z"/><path class="cls-2" d="M551.69,23.6c-15.01,6.48-9.44,16.26,13.07,8.41,22.51-7.84,22.4-18.3,7.73-15.23-14.67,3.07-20.81,6.82-20.81,6.82Z"/><path class="cls-2" d="M605.47,88.17c-8.19,.91-7.56,7.5,9.55,10.69,13.42,2.5,19.68-2.73,10.23-7.05-10.46-4.78-19.78-3.64-19.78-3.64Z"/><path class="cls-3" d="M311.24,835.7c24.97,21.68,35.31,42.55,30.14,62.74-10.92,42.63-127.6,63.04-216.47,89.43C78.76,1001.59,37.35,1015.88,0,1030.58v58.32c116.09-42.93,229.17-58.85,303.4-99.74,91.74-50.52,76.89-106.55,7.84-153.45Z"/></svg>