<?xml version="1.0" encoding="UTF-8"?>
<svg id="BG" xmlns="http://www.w3.org/2000/svg" viewBox="0 0 2650 2100">
    <defs>
        <style>
            .cls-1{fill:#f7b600;}.cls-2{fill:#fff;}.cls-3{fill:#fff6bf;}.cls-4{fill:#ffdb00;}.cls-5{fill:#ff1a36;}.cls-6{fill:#bc1a36;}.cls-7{fill:#1e1e1e;}.cls-8{fill:#38d4ff;}.cls-9{fill:#25a9d8;}
        </style>
    </defs>
    <path class="cls-2"
          d="M0,2100H2650v-172.74H1256.31c-298.34,0-321.32-166.19,100.23-275.71,518.07-134.6,628.44-345.18,522.57-527.54-106.01-182.6-484.28-214.92-513.56-336.5-43.18-179.26,270.3-195.38,306.34-401.62l-168.9-106.12c-65.36,210.32-235.36,144.03-367.19,268.94-132.9,125.91-192.66,373.26,81.09,488.46,159.93,67.3,237.76,129.04,223,186.7-14.89,58.16-174.08,86-295.31,122-774.85,230.12-574.14,581.38-1015.63,581.38H0v172.74Z"/>
    <path class="cls-3"
          d="M1284.45,965.53c164.43,65.13,367.48,191.58,380.67,336.5,11.26,123.74-71.89,233.97-292.46,345.26,504.21-134.75,611.21-342.83,506.45-523.28-106.01-182.6-484.28-214.92-513.56-336.5-43.18-179.26,270.3-195.38,306.34-401.62l-168.9-106.12c-3.62,11.66-7.57,22.46-11.81,32.5,33.61,33.09,73.24,64.73,25.29,123.55-74.33,91.18-274.8,99.86-358.14,234.46-54.84,88.56-69.58,217.73,126.14,295.25Z"/>
    <path class="cls-2"
          d="M1532.14,184.85s-14.73,33.35-2.17,62.04c12.56,28.69,62.35,75.22,62.35,75.22l74.45,35.83h51.18l12.56-5.12,63.86,24.54,1.74,9.42s14.42,6.98,40.02-9.77c25.59-16.75,54.44-53.98,54.44-53.98,0,0,16.75-26.99,20.01-39.09,3.26-12.1,5.12-24.2,0-31.64-5.12-7.44-18.15-12.1-18.15-12.1l-11.89-3.47s17.01-27.24,7.7-64.93c-9.31-37.69-55.37-58.63-55.37-58.63,0,0,6.98-84.22-27.92-100.51-34.9-16.29-98.7,17.65-98.7,17.65l-3.67-8.35s-26.99-16.75-49.79-13.03c-22.8,3.72-38.48,22.04-43.9,30.1,0,0-33.8-.32-47.76,12.71-13.96,13.03-19.54,24.2-19.54,24.2l-3.26,17.22s-17.68,5.12-26.06,18.61c-8.38,13.49-8.38,27.92-8.38,27.92l5.12,31.64,23.11,13.49Z"/>
    <path class="cls-4"
          d="M1791.7,182.06c-16.52-13.03-30.07-47.64-2.33-59.56,29.78-12.8,94.22,22.8,102.6,67.47l-.93,24.66-11.63,26.06s30.24-2.79,33.04,25.13c2.79,27.92-36.29,75.84-36.29,75.84l-40.02,35.36-25.13,12.56-14.89-2.79-4.03-14.58-4.81-55.68,.93-37.22s21.4-36.76,29.78-82.13l-26.29-15.12Z"/>
    <path class="cls-1"
          d="M1838.93,203.46c.62,12.72-4.34,41.57-14.27,58.63-9.93,17.06,18.3,20.47,40.02-5.89l6.2-4.34,8.53-11.17,11.01,.93c-1.55,20.47-14.61,54.32-48.08,83.75-25.75,22.64,2.79,47.46,35.67,9.62,0,0-41.88,66.69-84.69,49.32l-5.42-100.41,30.85-84.16,20.16,3.72Z"/>
    <path class="cls-4"
          d="M1629.86,99.54c-16.6-12.72-22.06-47.07-2.02-66.54,21.71-21.09,50.41-19.7,68.09-13.49,17.68,6.2,12.41,9.93,12.41,9.93l-35.67,17.06-7.76,6.82s16.44,58.01-35.05,46.22Z"/>
    <path class="cls-1" d="M1650.95,35.33c17.06-13.34,44.98-15.82,44.98-15.82l12.41,8.07-43.43,25.75-13.96-17.99Z"/>
    <path class="cls-4"
          d="M1571.23,135.53c-15.43-4.89-24.51-29.31-20.09-48.16s24.35-39.66,52.35-36.29c0,0-2.17,15.28,2.48,23.96,4.65,8.69,9.38,16.29,9.38,16.29,0,0,4.42,55.84-44.13,44.2Z"/>
    <path class="cls-4"
          d="M1592.32,40.92c-16.13,15.51-7.13,60.49,20.78,71.97l2.25-21.56s-19.62-20.63-7.21-48.55l-15.82-1.86Z"/>
    <path class="cls-1"
          d="M1605.97,75.04c-4.65-8.69-2.48-23.96-2.48-23.96-6.3-.76-12.18-.31-17.57,1.05-5.76,19.77,4.42,51.4,27.19,60.76l2.25-21.56s-5.38-5.67-8.73-15.07c-.22-.4-.44-.8-.66-1.21Z"/>
    <path class="cls-4"
          d="M1571.85,137.62s-11.48-3.96-18.61-10.47c-7.13-6.51-13.03-23.27-13.03-23.27-49.63,20.47-15.82,76.93,.93,80.96,0,0,39.71,0,30.71-47.23Z"/>
    <path class="cls-4"
          d="M1538.35,93.18l-13.34,7.29c-5.27,22.64,19.85,58.94,46.53,57.7l.31-20.55s-30.4-4.58-33.5-44.44Z"/>
    <path class="cls-1"
          d="M1540.01,103.97c-6.34,2.64-11.3,5.87-15.1,9.5,3.76,21.3,24.67,45.72,46.63,44.7l.31-20.55s-24.7-3.72-31.84-33.65Z"/>
    <path class="cls-5"
          d="M1544.39,265.35c-10.7-12.1-15.36-48.86-.93-78.64,0,0,34.9-4.89,28.38-49.09,0,0,49.95,5.96,43.51-46.3,0,0,23.65,20.39,41.41,4.19,13.26-12.1,10.93-31.87,10.93-31.87,19.54-14.42,65.61-37.22,94.92-43.27,29.31-6.05,52.58,0,60.72,18.15,8.14,18.15,8.84,58.86,8.84,58.86l1.16,18.15s-30.94-17.22-53.98-.93c-23.03,16.29-6.51,47.46-6.51,47.46l18.84,20.01,26.29,15.12-9.31,35.83-19.08,50.02-42.11,63.05-35.74,12.1s-32.43,10.24-85.7-20.47c-53.28-30.71-81.66-72.35-81.66-72.35Z"/>
    <path class="cls-6" d="M1817.53,22.92c10.44,42.71-5.58,84.69-5.58,84.69l20.94,5.58s4.19-50.25-15.36-90.27Z"/>
    <path class="cls-6"
          d="M1766.03,133.67c-13.34,2.48-27.92,31.8,18.61,64.52-9.26,40.06-39.51,104.29-97.87,116.48-37.45,7.82-108.42-20.94-147.97-54.91l34.9,51.18,112.29,62.51,36.29-17.68,33.5-19.54,24.82-33.19,15.82-37.22,21.56-68.63s-55.37-24.12-51.96-63.51Z"/>
    <path class="cls-5" d="M1645.06,102.34c18.92,11.48,59.25-12.1,36.29-58.32l-16.44,9.31s16.75,38.16-19.85,49.01Z"/>
    <path class="cls-6"
          d="M1645.06,102.34c17.71,10.74,54.18-9.23,39.94-49.74-6.74,3.87-12.62,7.61-17.12,10.92,2.28,12.1,1.66,31.56-22.82,38.82Z"/>
    <path class="cls-6"
          d="M1546.41,187.33c27.3,9.93,49.01-10.24,43.43-40.64,26.99,4.03,49.63-19.85,45.91-44.05l-20.4-11.32s-1.01,58.63-43.51,46.3c0,0,9.62,42.89-25.44,49.71Z"/>
    <path class="cls-8"
          d="M1667.39,126.22c-27.74,7.57-46.22,27.3-45.91,60.8,.31,33.5,22.64,60.8,59.56,61.11,36.91,.31,69.8-31.02,62.04-73.83-7.76-42.81-48.39-55.53-75.69-48.08Z"/>
    <path class="cls-2"
          d="M1743.08,174.3l-120.98,24.82,3.1,11.48,118.5-24.51-.62-11.79Zm-111.67,47.77l109.5-18.92,2.17-7.13-114.78,21.71,3.1,4.34Z"/>
    <path class="cls-9"
          d="M1652.35,241.62c-28.24-33.35-18.47-86.03,23.27-98.18,36.76-10.7,63.75,16.29,68.4,34.9,0,0-5.58-57.7-70.73-54.91-68.87,18.15-66.54,92.6-20.94,118.19Z"/>
    <g>
        <path class="cls-8" d="M1636.32,196.2l-14.22,2.92,3.1,11.48,11.85-2.45c-.61-3.99-.85-7.99-.73-11.94Z"/>
        <path class="cls-8" d="M1638.68,215.77l-10.38,1.96,3.1,4.34,8.79-1.52c-.57-1.58-1.08-3.18-1.52-4.79Z"/>
    </g>
    <path class="cls-8"
          d="M1499.26,154.45l-14.89,10.55s-8.07,9.93-1.55,22.96c6.51,13.03,24.2,28.23,24.2,28.23l19.47,10.84,.39-17.66-27.61-54.91Z"/>
    <path class="cls-8"
          d="M1730.52,352.82l-12.56,5.12,13.65,11.79s27.61,19.54,43.43,20.47c15.82,.93,19.42-8.94,19.42-8.94l-2.36-9.05-61.58-19.39Z"/>
    <path class="cls-7"
          d="M1628.35,209.38c.2,.48-.17-.43-.25-.6-.14-.36-.28-.72-.42-1.08-.31-.81-.6-1.62-.87-2.44-.5-1.49-.93-2.99-1.32-4.51-.39-1.55-.72-3.11-.98-4.68-.06-.37-.12-.74-.18-1.11-.03-.18-.05-.37-.08-.55-.07-.49,.06,.48,0,0-.1-.78-.18-1.57-.25-2.35-.27-3.07-.31-6.16-.13-9.24,.04-.73,.1-1.46,.17-2.19,.04-.36,.07-.73,.11-1.09,.03-.23,.05-.45,.08-.68,.07-.61-.04,.25,.02-.13,.24-1.49,.47-2.97,.79-4.44,.64-2.98,1.5-5.91,2.56-8.77,.25-.68,.52-1.36,.8-2.03,.18-.45-.18,.43,0-.01,.07-.17,.14-.33,.22-.5,.16-.38,.33-.75,.5-1.12,.65-1.41,1.35-2.79,2.1-4.14,1.48-2.68,3.17-5.24,5.01-7.69,.29-.38-.28,.35,.02-.03,.11-.14,.23-.29,.34-.43,.23-.29,.46-.57,.69-.86,.5-.6,1.01-1.2,1.53-1.78,1.04-1.17,2.13-2.31,3.26-3.4,1.14-1.1,2.32-2.16,3.53-3.17,.29-.24,.58-.48,.87-.71,.15-.12,.91-.71,.48-.38,.64-.49,1.28-.96,1.94-1.42,2.62-1.84,5.38-3.49,8.24-4.91,.7-.35,1.4-.68,2.11-1,.36-.16,.72-.32,1.08-.47-.47,.2-.01,0,.07-.03,.27-.11,.54-.22,.81-.33,1.48-.59,2.98-1.12,4.5-1.59,3.02-.94,6.12-1.65,9.25-2.11,.18-.03,.37-.05,.55-.08-.12,.02-.6,.07,0,0,.37-.04,.74-.09,1.11-.13,.83-.09,1.66-.16,2.49-.21,1.52-.1,3.03-.14,4.55-.12,1.51,.02,3.02,.09,4.52,.21,.73,.06,1.45,.14,2.17,.22,.18,.02,.36,.05,.54,.07-.62-.08-.14-.02-.01,0,.45,.07,.9,.13,1.35,.21,2.99,.5,5.94,1.22,8.82,2.16,1.42,.46,2.82,.97,4.19,1.54,.17,.07,.33,.14,.5,.21-.54-.23-.1-.04,0,0,.33,.15,.66,.29,.99,.44,.74,.34,1.47,.69,2.2,1.06,2.66,1.35,5.23,2.89,7.66,4.61,.33,.24,.66,.48,.99,.72,.15,.11,.29,.22,.44,.33,.07,.05,.52,.4,.23,.17s.16,.12,.22,.18c.14,.11,.29,.23,.43,.34,.32,.26,.64,.52,.95,.78,1.19,1,2.34,2.04,3.45,3.13s2.13,2.17,3.13,3.31c.49,.56,.97,1.12,1.44,1.7,.23,.29,.47,.58,.7,.87,.3,.38-.27-.35,.03,.04,.14,.19,.28,.37,.42,.56,1.92,2.58,3.63,5.32,5.12,8.17,.36,.68,.7,1.38,1.03,2.07,.17,.35,.33,.7,.49,1.06,.08,.18,.16,.36,.24,.53,.03,.06,.33,.77,.19,.44s.1,.23,.12,.3c.07,.18,.15,.36,.22,.54,.14,.36,.28,.72,.42,1.08,.29,.76,.56,1.53,.82,2.3,1.01,3.05,1.79,6.17,2.32,9.34,.06,.37,.12,.74,.17,1.11,.03,.18,.05,.37,.08,.55-.02-.12-.07-.61,0,0,.09,.78,.18,1.57,.25,2.35,.13,1.52,.21,3.04,.22,4.56,.02,1.56-.02,3.12-.12,4.68-.05,.73-.11,1.46-.18,2.19-.04,.36-.08,.73-.12,1.09-.02,.18-.04,.36-.07,.54-.11,.91,.1-.64-.04,.26-.44,2.98-1.07,5.92-1.91,8.81-.44,1.48-.92,2.95-1.47,4.4-.26,.68-.52,1.36-.8,2.03,.24-.59-.17,.38-.22,.51-.16,.37-.33,.75-.51,1.12-1.28,2.77-2.77,5.45-4.44,8.01-.85,1.3-1.75,2.57-2.69,3.81,.37-.49-.28,.35-.36,.46-.23,.29-.46,.57-.7,.86-.5,.6-1.01,1.2-1.53,1.78-2.07,2.32-4.31,4.48-6.7,6.47-.29,.24-.58,.48-.87,.71-.09,.08-.96,.74-.48,.38-.67,.51-1.36,1.02-2.05,1.5-1.28,.9-2.6,1.75-3.95,2.55s-2.76,1.57-4.18,2.28c-.74,.37-1.49,.72-2.24,1.06-.18,.08-.36,.16-.54,.24-.07,.03-.63,.27-.31,.13s-.24,.1-.31,.13c-.23,.09-.45,.18-.68,.27-2.98,1.18-6.06,2.14-9.19,2.85-1.51,.34-3.03,.63-4.57,.85-.18,.03-.37,.05-.55,.08,.6-.08,.11-.02,0,0-.37,.04-.74,.09-1.11,.13-.83,.09-1.66,.16-2.49,.21-3.07,.2-6.15,.16-9.21-.1-.73-.06-1.45-.14-2.17-.23-.09-.01-.67-.09-.26-.03,.4,.05-.17-.02-.26-.04-.4-.06-.81-.12-1.21-.19-1.52-.25-3.03-.56-4.52-.93-2.94-.72-5.82-1.67-8.62-2.81-.08-.03-.61-.26-.25-.1,.35,.15-.17-.08-.25-.11-.33-.15-.66-.29-.99-.44-.7-.32-1.39-.65-2.07-1-1.37-.69-2.71-1.44-4.03-2.23-1.28-.77-2.53-1.59-3.75-2.46-.33-.24-.66-.48-.99-.72-.15-.11-.92-.7-.46-.34-.61-.47-1.21-.96-1.8-1.46-2.35-1.98-4.55-4.14-6.57-6.45-.49-.56-.96-1.13-1.43-1.7-.23-.29-.47-.58-.69-.87,.36,.46-.36-.49-.45-.6-.95-1.29-1.85-2.61-2.7-3.96-1.65-2.65-3.09-5.43-4.33-8.3-.66-1.54-2.92-1.88-4.24-1.11-1.59,.93-1.78,2.7-1.11,4.24,5.27,12.2,14.43,22.59,25.87,29.37,11.12,6.59,24.31,9.73,37.21,8.74,13.75-1.05,26.86-6.47,37.42-15.32,10-8.38,17.32-19.87,20.91-32.39,3.63-12.67,3.37-26.46-.92-38.93-4.44-12.9-12.79-24.09-23.97-31.93-10.57-7.41-23.49-11.41-36.4-11.42-13.49-.01-26.99,4.35-37.93,12.25-10.83,7.82-19.04,18.69-23.65,31.23-4.52,12.31-5.2,26-1.92,38.7,.86,3.33,2.03,6.54,3.37,9.7,.66,1.54,2.92,1.88,4.24,1.11,1.59-.93,1.77-2.69,1.11-4.24Z"/>
    <path class="cls-7"
          d="M1894,182.91c-1.63-11.6-5.97-22.82-12.25-32.69-6.34-9.96-14.58-18.54-24.04-25.58-11.83-8.81-25.77-15.5-40.3-18.27-12.02-2.3-24.91-2.08-36.16,3.16-9.12,4.25-16.28,12.42-18.1,22.46-1.7,9.38,1.03,18.82,5.52,27.04,5.44,9.98,13.48,18.54,22.33,25.58,10.65,8.47,25.48,18.85,45.84,20.02,5.01,.29,4.77-2.21,1.06-3.22-3.31-.9-6.58-1.93-9.81-3.09-3.31-1.2-5.85-2.24-8.86-3.61-5.84-2.68-11.48-5.81-16.83-9.38-1.28-.86-2.55-1.74-3.8-2.65-.6-.43-1.19-.87-1.77-1.32-.16-.12-.31-.24-.47-.36l-.11-.08c-.08-.06-.27-.21-.3-.24-.19-.15-.38-.3-.57-.45-2.3-1.83-4.52-3.75-6.65-5.76-2.04-1.92-3.99-3.93-5.84-6.03-.89-1.01-1.76-2.04-2.6-3.09-.19-.23-.37-.47-.56-.7h0c-.1-.13-.19-.25-.29-.38-.4-.53-.8-1.07-1.19-1.62-1.45-2.03-2.8-4.14-4.01-6.32-.56-1.01-1.09-2.03-1.59-3.07-.26-.54-.51-1.09-.75-1.64-.03-.08-.07-.15-.1-.23-.11-.29-.24-.58-.35-.87-.8-2.04-1.45-4.13-1.93-6.27-.1-.46-.2-.93-.28-1.4-.05-.26-.09-.53-.14-.79-.02-.11-.04-.23-.06-.33-.17-.97-.2-1.99-.23-2.96-.03-.96-.02-1.92,.04-2.87,.03-.47,.08-.94,.13-1.41v-.11c.05-.25,.09-.49,.14-.74,.2-1.08,.46-2.15,.79-3.21,.17-.53,.35-1.06,.54-1.59,.02-.06,.15-.38,.22-.56,.07-.16,.2-.45,.24-.54,.48-1.02,1.02-2.02,1.62-2.97,.29-.46,.6-.91,.91-1.35,.09-.12,.18-.24,.27-.36-.04,.06,.34-.42,.45-.55,.73-.87,1.51-1.69,2.33-2.46,.4-.38,.82-.74,1.24-1.1,.19-.16,.38-.31,.57-.47,.13-.1,.26-.19,.39-.29,1.93-1.41,4.03-2.59,6.21-3.57,.25-.11,.82-.34,.25-.11,.3-.12,.6-.24,.9-.36,.61-.24,1.23-.46,1.85-.66,1.24-.41,2.49-.76,3.76-1.06,1.31-.31,2.64-.57,3.98-.77,.16-.02,.32-.05,.48-.07h.02c.31-.04,.63-.08,.94-.11,.73-.08,1.46-.14,2.19-.19,2.97-.2,5.95-.18,8.91,.04,.75,.06,1.5,.12,2.25,.2,.35,.04,.71,.08,1.06,.12,.2,.02,.41,.05,.61,.08h.08s.09,.02,.17,.04c1.61,.25,3.22,.52,4.81,.86,3.36,.71,6.68,1.63,9.93,2.73,7.04,2.39,13.67,5.64,20.13,9.65,2.67,1.66,5.27,3.42,7.78,5.31,.08,.06,.51,.39,.58,.44,.24,.18,.47,.37,.71,.55,.56,.45,1.12,.9,1.67,1.36,1.04,.86,2.05,1.74,3.05,2.64,2.06,1.86,4.04,3.81,5.93,5.85,.97,1.05,1.92,2.12,2.85,3.22,.4,.48,.8,.96,1.2,1.45,.23,.28,.45,.56,.67,.84,.08,.1,.33,.43,.42,.54,3.33,4.37,6.27,9.04,8.72,13.97,.62,1.24,1.2,2.5,1.76,3.78,.05,.12,.22,.51,.24,.56,.11,.27,.22,.54,.33,.82,.27,.67,.53,1.34,.78,2.01,.97,2.63,1.81,5.31,2.49,8.02,.68,2.7,1.21,5.43,1.61,8.18,.02,.15,.08,.62,.09,.72,.04,.32,.08,.64,.11,.97,.08,.74,.15,1.48,.21,2.22,.11,1.45,.19,2.9,.22,4.36,.07,2.97-.04,5.95-.31,8.91-.07,.73-.14,1.46-.23,2.19-.04,.3-.07,.6-.11,.9,0,.07-.02,.15-.03,.18-.04,.25-.07,.49-.11,.74-.23,1.54-.51,3.07-.83,4.59-.66,3.15-1.5,6.27-2.5,9.33-1.04,3.18-2.26,6.32-3.49,9.05-3.06,6.79-6.86,13.23-11.16,19.3-2.23,3.15-4.48,6.29-7.09,9.12-2.35,2.54-.76,4.3,2.77,2.19,12.45-7.44,20.2-23.31,25.05-38.32,3.96-12.29,5.18-25.28,3.39-38.07Zm-114.28-18.29c-.29-.37-.1-.12,0,0h0Zm16.35-53.02c-.16,.02-.37,.04,0,0h0Z"/>
    <g>
        <path class="cls-7" d="M1606.92,55.73c0,.08-.02,.16-.03,.24,0,.06,0,.03,.03-.26v.02h0Z"/>
        <path class="cls-7" d="M1609.73,76.15c-.13-.34-.14-.35-.11-.27,.03,.08,.07,.17,.1,.25v.03Z"/>
        <path class="cls-7"
              d="M1703.71,28.4c.64,.47,1.27,.95,1.91,1.43l.04,.03c.13,.1,.27,.21,.4,.31,.07,.06,.14,.11,.21,.17l5.92-3.17c-1.89-1.56-3.85-3.04-5.82-4.47-7.65-5.53-16.08-10.08-25.04-13.09-11.1-3.73-23.11-4.74-34.54-1.97-6.64,1.61-13,4.49-18.7,8.24-6,3.94-11.57,8.76-16.09,14.34-7.27,8.96-11.88,19.95-11.58,31.62,.25,9.78,3.75,19.4,9.7,27.15,5.53,7.2,13.12,13.13,22.01,15.47,4.25,1.12,8.66,1.33,12.99,.53,4.92-.91,9.47-3.39,13.32-6.52,8.44-6.86,12.26-17.85,12.18-28.49-.08-11.06-2.27-20.01-7.72-27.36-3.57-4.81-7.12-7.66-12.1-9.15-3.1-.93-4.34,.47-1,3.64,.97,.92,1.93,1.83,2.83,2.81,.42,.46,.83,.93,1.24,1.41,.19,.22,.37,.45,.56,.67,.11,.13,.21,.26,.31,.39,.03,.03,.04,.04,.06,.07,1.57,2.11,3.01,4.3,4.24,6.63,.63,1.18,1.19,2.39,1.73,3.61,.02,.05,.03,.07,.04,.09,.02,.04,.04,.11,.08,.2,.11,.27,.22,.54,.32,.81,.25,.66,.5,1.32,.72,1.99,.83,2.46,1.48,4.98,1.92,7.54,.06,.32,.11,.64,.16,.97,.02,.1,.03,.21,.05,.31,.07,.63,.15,1.26,.2,1.89,.11,1.28,.16,2.57,.16,3.85,0,1.23-.05,2.46-.16,3.68-.03,.31-.06,.63-.09,.94-.01,.13-.09,.68-.08,.63-.03,.2-.07,.47-.08,.52-.06,.34-.12,.69-.18,1.03-.23,1.17-.51,2.34-.85,3.48-.16,.55-.34,1.1-.53,1.64-.1,.29-.21,.57-.32,.86-.05,.13-.15,.36-.2,.49-.96,2.17-2.13,4.2-3.54,6.12l-.03,.04s-.06,.08-.12,.14c-.17,.21-.34,.41-.51,.62-.42,.5-.87,.98-1.32,1.44-.79,.81-1.64,1.55-2.52,2.26-.1,.07-.41,.32-.51,.39-.26,.19-.52,.37-.79,.55-.54,.36-1.1,.71-1.66,1.04-.54,.31-1.09,.61-1.65,.89-.27,.13-.53,.26-.8,.39-.07,.03-.33,.15-.49,.22-.15,.06-.34,.14-.39,.16-.2,.08-.4,.15-.6,.22-.49,.17-.98,.32-1.48,.46-.9,.25-1.81,.42-2.73,.59h-.06c-.21,.03-.42,.05-.62,.07-.51,.04-1.01,.07-1.52,.09-.93,.02-1.85,0-2.78-.08-.24-.02-.48-.04-.72-.07-.24-.19-1.12-.17-1.41-.23-.96-.19-1.91-.42-2.84-.7-.95-.29-1.88-.64-2.81-.99h-.02l-.02-.02c-.2-.09-.4-.18-.6-.27-.49-.23-.97-.46-1.45-.71-1.81-.94-3.55-2.03-5.18-3.25-.18-.13-.83-.67-.16-.12-.18-.15-.36-.29-.54-.43-.41-.34-.82-.68-1.22-1.03-.81-.71-1.6-1.45-2.35-2.22-.74-.75-1.46-1.54-2.14-2.34-.33-.39-.66-.79-.98-1.2-.04-.05-.06-.08-.09-.1l-.07-.09c-.19-.25-.37-.5-.56-.75-1.27-1.76-2.42-3.61-3.43-5.54-.52-.99-.99-1.99-1.44-3.01l.03,.08s-.03-.07-.04-.11l-.02-.04c-.03-.06-.06-.15-.08-.21l-.02-.04c-.09-.23-.18-.47-.27-.7-.22-.57-.42-1.14-.62-1.72-.72-2.13-1.27-4.32-1.64-6.54-.05-.29-.09-.58-.14-.87v-.03l.02,.2c0-.08-.02-.15-.03-.23-.01-.1-.03-.23-.03-.21h0c-.07-.59-.13-1.18-.17-1.77-.09-1.16-.13-2.31-.12-3.47,0-1.22,.07-2.43,.19-3.64,.03-.27,.05-.54,.09-.8v-.08c.01-.05,.03-.17,.04-.24,0-.05,.01-.09,.02-.14v.12c.08-.61,.18-1.22,.3-1.83,.48-2.5,1.19-4.95,2.11-7.33,.11-.3,.24-.59,.35-.89,.05-.12,.1-.24,.15-.36,.28-.63,.57-1.25,.88-1.86,.63-1.27,1.32-2.51,2.06-3.72,.77-1.26,1.61-2.49,2.49-3.69,.08-.11,.17-.23,.26-.34,.02-.03,.13-.17,.2-.26,.07-.09,.17-.22,.2-.25,.09-.11,.18-.23,.27-.34,.53-.65,1.07-1.3,1.62-1.93,2.2-2.51,4.61-4.84,7.15-6.99,2.6-2.2,5.29-4.16,8.35-6,1.41-.85,2.86-1.65,4.34-2.38,.69-.34,1.39-.67,2.1-.99,.19-.08,.37-.16,.56-.25,.05-.02,.08-.03,.1-.04,.41-.17,.83-.34,1.25-.5,2.78-1.08,5.64-1.92,8.56-2.53,.72-.15,1.45-.28,2.18-.4,.32-.05,.64-.09,.95-.15h.02c.21-.03,.43-.06,.64-.08,1.42-.17,2.85-.27,4.29-.32,2.7-.1,5.4,0,8.09,.29,.34,.04,.68,.08,1.02,.12,.11,.01,.22,.03,.33,.04l.11,.02c.67,.1,1.34,.21,2,.32,1.28,.23,2.55,.49,3.81,.8,2.5,.6,4.97,1.34,7.39,2.21,1.19,.43,2.38,.88,3.55,1.37,.09,.04,.17,.07,.26,.11,.27,.12,.55,.24,.82,.36,.56,.25,1.12,.5,1.68,.76,4.04,1.89,7.94,4.08,11.68,6.51,1.59,1.03,3.15,2.11,4.68,3.23Zm-66.74,70.74c-.06,0-.12-.02-.19-.02-.42-.04-.02,0,.19,.02Z"/>
        <path class="cls-7" d="M1606.93,65.97c-.02-.16-.03-.22-.03-.24,0,.07,.02,.14,.03,.21v.03Z"/>
    </g>
    <path class="cls-7" d="M1484.18,170.95c-.12,.35-.14,.72,0,0h0Z"/>
    <path class="cls-7"
          d="M1523.49,224.91c-4.29-3.07-8.05-5.9-11.98-9.08-6.31-5.11-12.41-10.58-17.75-16.71-.53-.61-1.06-1.23-1.58-1.86-.27-.33-.54-.67-.81-1-.13-.17-.26-.33-.39-.5h0l-.02-.03c-.9-1.22-1.8-2.44-2.63-3.7-.76-1.16-1.47-2.34-2.12-3.56-.29-.55-.57-1.1-.84-1.65-.14-.29-.28-.59-.41-.89-.04-.1-.09-.2-.13-.29h0c-.78-2.02-1.36-4.03-1.75-6.14-.01-.09-.04-.19-.04-.24-.02-.26-.05-.52-.07-.79-.04-.52-.05-1.03-.05-1.55,0-.46,.02-.93,.06-1.39,.02-.19,.04-.38,.06-.57,0-.04,.02-.09,.03-.15,.15-.91,.38-1.8,.67-2.68,.14-.41,.4-.85,.47-1.26,0,.04-.01,.06-.02,.09,.02-.05,.03-.1,.06-.14,.11-.22,.22-.45,.33-.67,.45-.86,.96-1.69,1.52-2.48,.06-.09,.41-.45,.45-.59l.02-.03c.34-.41,.69-.82,1.06-1.21,.73-.78,1.51-1.52,2.32-2.22,.39-.33,.78-.65,1.18-.97,.05-.04,.1-.07,.15-.11,.28-.21,.57-.42,.86-.63,2.03-1.43,4.19-2.68,6.42-3.8,1.21-.61,2.43-1.18,3.67-1.71,.14-.06,.28-.12,.42-.18l.05-.02c.29-.12,.59-.24,.88-.36,.72-.29,1.45-.57,2.17-.84,.09-.03,.18-.06,.27-.1-.66-2.12-1.19-4.16-1.61-5.98-2.02,.75-4.01,1.54-5.98,2.42-8.68,3.86-17.71,9.85-20.73,19.36-3.17,9.99,1.99,20.34,7.94,28.14,4.81,6.31,10.45,11.91,16.44,17.1,8.02,6.96,16.6,13.27,25.38,19.23l.04,.02-.98-8.19c-1-.7-2-1.4-2.99-2.11Z"/>
    <g>
        <path class="cls-7" d="M1697.39,400.72s-.04,.02-.14,.06l.05-.02s.06-.03,.09-.04Z"/>
        <path class="cls-7"
              d="M1715.09,356.41c.06,.29,.13,.58,.19,.87,.19,.97,.36,1.95,.51,2.93,.03,.22,.07,.45,.1,.67v.09c.07,.51,.14,1.02,.19,1.53,.19,1.83,.3,3.67,.32,5.51,.02,1.81-.06,3.61-.24,5.41-.04,.4-.09,.8-.13,1.19h0c-.04,.23-.07,.47-.11,.7-.14,.86-.3,1.71-.49,2.55-.37,1.66-.84,3.3-1.42,4.9-.13,.37-.27,.73-.41,1.09-.06,.14-.11,.28-.17,.42-.03,.06-.05,.12-.08,.18-.35,.77-.7,1.52-1.09,2.27-.81,1.54-1.73,3.03-2.76,4.44-.13,.18-.27,.36-.4,.54v.02s-.04,.03-.06,.06c-.3,.37-.6,.73-.91,1.09-.61,.7-1.26,1.38-1.93,2.03-.66,.64-1.35,1.25-2.06,1.83-.04,.03-.17,.14-.27,.21-.1,.08-.23,.17-.27,.2-.37,.27-.74,.53-1.12,.79-1.52,1.02-3.12,1.9-4.79,2.65-.1,.05-.21,.09-.31,.14,0,0-.03,.01-.09,.04-.06,.03-.12,.05-.18,.08,.05-.02,.1-.04,.14-.06-.05,.02-.11,.05-.19,.08-.47,.18-.94,.36-1.41,.53-.86,.3-1.73,.57-2.61,.81-.93,.26-1.88,.48-2.82,.67-.45,.09-.89,.17-1.34,.25-.26,.04-.53,.09-.79,.13-.08,.01-.17,.02-.25,.04-4.22,.47-8.43,.53-12.66,.18-1.11-.09-2.21-.21-3.32-.35-.13-.02-.25-.03-.38-.05h0c-.27-.04-.54-.08-.82-.12-.6-.09-1.19-.18-1.79-.28-2.47-.42-4.92-.93-7.36-1.52-10.95-2.64-21.53-6.73-31.52-11.31-12.23-5.61-24.03-12.14-35.52-19.15-6.07-3.7-12.05-7.55-17.96-11.51-11.36-7.63-22.46-15.65-33.05-24.3-9.38-7.67-18.42-15.82-26.64-24.73-1.82-1.98-3.6-3.99-5.33-6.05-.85-1.01-1.68-2.03-2.5-3.07-.19-.23-.37-.47-.56-.71-.07-.09-.32-.42-.4-.51-.07-.1-.32-.42-.39-.51-.24-.31-.47-.62-.7-.94-2.8-3.76-5.39-7.67-7.64-11.78-1.05-1.91-2.02-3.87-2.9-5.87-.02-.06-.12-.28-.18-.41-.05-.13-.15-.35-.17-.41-.21-.52-.41-1.03-.61-1.55-.34-.91-.66-1.83-.95-2.75-.58-1.85-1.07-3.73-1.42-5.63-.08-.43-.15-.85-.22-1.28-.03-.21-.06-.43-.09-.64,.11,.71,.02,.09-.02-.24-.1-.87-.16-1.75-.2-2.62-.07-1.79,0-3.56,.19-5.34v-.08c.03-.17,.06-.34,.09-.51,.07-.43,.15-.87,.24-1.3,.18-.86,.39-1.72,.64-2.57,.25-.85,.54-1.69,.86-2.52,.07-.19,.15-.37,.22-.56l.02-.04c.21-.44,.4-.89,.62-1.32,.81-1.63,1.75-3.19,2.8-4.67,.22-.31,.46-.62,.68-.93,.05-.07,.11-.14,.16-.2,.15-.19,.31-.38,.47-.57,.58-.7,1.19-1.37,1.83-2.02,.61-.63,1.25-1.24,1.9-1.82,.34-.31,.69-.61,1.04-.9,.16-.14,.33-.27,.49-.4,.09-.07,.19-.15,.27-.21,3-2.24,6.21-4.01,9.62-5.55,.04-.02,.08-.03,.12-.05,.21-.09,.43-.17,.64-.26,.5-.2,1.01-.39,1.52-.57,.92-.33,1.86-.64,2.8-.93,2-.61,4.03-1.12,6.08-1.54l-6.51-4.78c-6.81,1.94-13.28,4.99-18.83,9.45-6.02,4.83-10.69,11.52-12.83,18.96-2.16,7.56-1.53,15.65,.78,23.09,2.76,8.89,7.61,17.05,13.14,24.48,6.86,9.21,14.79,17.57,23.2,25.37,9.9,9.17,20.48,17.61,31.35,25.59,5.66,4.15,11.41,8.17,17.24,12.08,12.12,8.12,24.55,15.79,37.41,22.66,11.26,6.02,22.89,11.47,34.95,15.71,9.9,3.48,20.22,6.16,30.73,6.85,8.49,.56,17.18-.41,24.93-4.08,7.05-3.34,12.78-9.16,16.34-16.07,3.42-6.62,4.91-14.06,4.86-21.48-.01-1.91-.13-3.82-.32-5.73l-7.19-5.98Zm-43.62,46.65c.57,.07,.14,.02,0,0h0Z"/>
    </g>
    <path class="cls-7"
          d="M1526.48,227.02l-10.16,2.5-16.44,9.31-10.24,17.37s-.31,22.96,11.17,39.71c11.48,16.75,36.29,41.57,79.1,70.42,42.81,28.85,84.38,43.74,110.12,40.64,25.75-3.1,30.09-33.19,30.09-33.19l-2.17-15.82-5.27-1.24s-28.23,10.55-77.86-17.37c-49.63-27.92-82.51-61.42-82.51-61.42l-22.33-31.02-3.49-19.87Z"/>
    <g>
        <path class="cls-7" d="M1779.68,387.61c-.55-.02-.32,0,0,0h0Z"/>
        <path class="cls-7" d="M1784.08,386.42c-.76,.23-.32,.12,0,0h0Z"/>
    </g>
    <path class="cls-7"
          d="M1802.26,328.24c-1.02-8.83-2.44-17.62-4.13-26.35-1.72-8.89-3.73-17.73-5.91-26.52l-4.3,8.53c3.02,12.76,5.61,25.63,7.42,38.62,.02,.14,.11,.78,.12,.9,.05,.41,.11,.81,.16,1.22,.13,1.04,.26,2.09,.38,3.13,.23,1.95,.43,3.9,.62,5.86,.34,3.67,.59,7.35,.72,11.04,.12,3.35,.13,6.71,0,10.06-.06,1.55-.15,3.1-.28,4.64-.06,.71-.13,1.42-.2,2.13-.04,.35-.08,.69-.12,1.04-.02,.17-.04,.34-.06,.51-.01,.08-.01,.19,0,.28-.02,.51-.19,1.09-.27,1.57-.11,.7-.24,1.39-.37,2.09-.25,1.27-.54,2.53-.87,3.79-.31,1.17-.67,2.34-1.08,3.48-.19,.52-.39,1.04-.59,1.56l-.03,.08-.02,.05c-.13,.28-.25,.57-.39,.85-.46,.97-.96,1.91-1.52,2.82-.26,.42-.53,.83-.81,1.24-.14,.2-.28,.39-.42,.59l-.04,.05-.06,.08c-.62,.75-1.27,1.46-1.98,2.12-.33,.31-.67,.59-1.02,.88h-.02c-.21,.16-.43,.32-.65,.46-.75,.5-1.54,.95-2.36,1.33-.03,.02-.08,.03-.12,.05,.05-.01,.08-.02,.13-.04-.22,.06-.43,.17-.64,.25-.47,.18-.95,.33-1.44,.47-.46,.13-.92,.24-1.39,.34-.24,.05-.48,.1-.71,.14-.1,.02-.23,.03-.35,.03,.06,0,.12,0,.2,0-1.05-.05-2.16,.2-3.22,.19-1.16,0-2.32-.08-3.48-.22h-.13l-.07-.03c-.3-.05-.59-.09-.89-.14-.66-.12-1.33-.25-1.98-.4-2.84-.64-5.61-1.55-8.31-2.63-.36-.14-.71-.29-1.07-.43-.18-.08-.36-.15-.53-.23-.75-.33-1.49-.66-2.23-1.01-1.64-.77-3.26-1.59-4.85-2.45-3.62-1.95-7.14-4.09-10.58-6.34-4.02-2.64-7.94-5.43-11.78-8.33-2.12-1.6-3.75-2.87-5.98-4.66-1.91-1.53-3.79-3.09-5.67-4.66l-7.35,1.89c7.1,6.06,14.41,11.89,22.03,17.28,6.79,4.8,13.88,9.29,21.43,12.8,5.75,2.67,11.71,4.81,18.03,5.55,4.73,.55,9.51,0,13.86-1.98,3.99-1.81,7.21-5.03,9.55-8.7,2.66-4.17,4.24-9.04,5.23-13.85,1.27-6.15,1.71-12.47,1.73-18.74,.03-7.45-.52-14.89-1.37-22.28Z"/>
    <g>
        <path class="cls-7" d="M1811.16,384.83h.02c-.93,.01-.3,.04-.02,0Z"/>
        <path class="cls-7" d="M1798.51,383.55c.07,.02-.13-.09-.35-.15,.02,0,.04,.02,.06,.03,.1,.04,.2,.09,.3,.13Z"/>
        <path class="cls-7" d="M1896.04,245.4s.08,.05,.16,.08c-.07-.03-.11-.05-.14-.07h-.01Z"/>
        <path class="cls-7" d="M1909.33,273.28s-.02,.03-.03,.05c0-.02,.02-.04,.03-.05h0Z"/>
    </g>
    <g>
        <path class="cls-7"
              d="M1689.95,41.79c14.44-7.94,29.2-15.03,44.51-20.63,6.82-2.49,13.76-4.69,20.81-6.43,3.25-.8,6.52-1.5,9.82-2.07,.74-.13,1.49-.25,2.24-.37,.37-.06,.74-.11,1.11-.17,.18-.03,.37-.05,.55-.08l.12-.02h.01c1.52-.2,3.04-.37,4.57-.5,2.85-.25,5.71-.37,8.57-.33,1.37,.02,2.74,.08,4.11,.18,.63,.05,1.25,.1,1.87,.17,.31,.03,.62,.07,.92,.1,.15,.02,.3,.04,.46,.06h.08c2.47,.38,4.91,.88,7.3,1.61,1.1,.34,2.19,.73,3.26,1.14,.09,.04,.19,.08,.28,.11,.26,.11,.51,.23,.77,.34,.52,.24,1.04,.49,1.55,.76,.98,.51,1.93,1.06,2.85,1.66,.46,.3,.91,.61,1.36,.94,.04,.03,.25,.18,.38,.29,.14,.11,.38,.3,.45,.36,1.75,1.43,3.36,3.03,4.83,4.74,.36,.42,.7,.84,1.05,1.27l.03,.04c.04,.05,.08,.11,.12,.16,.21,.28,.42,.56,.62,.85,.69,.96,1.34,1.95,1.97,2.95,1.35,2.19,2.54,4.47,3.61,6.81,.13,.29,.26,.57,.39,.86,.03,.07,.19,.45,.27,.62,.07,.17,.23,.56,.26,.63,.14,.34,.27,.68,.4,1.02,.51,1.32,.99,2.64,1.44,3.98,.94,2.83,1.75,5.7,2.45,8.6,.74,3.05,1.36,6.14,1.88,9.23,.28,1.65,.53,3.3,.76,4.95v.07c.04,.2,.06,.4,.09,.6,.05,.4,.1,.8,.15,1.2,.1,.86,.2,1.72,.29,2.58,1.54,14.43,1.51,29.02,.64,43.5l6.06,2.49c.57-8.6,.83-17.22,.69-25.84-.23-14.04-1.46-28.25-4.94-41.88-2.72-10.66-6.98-21.38-14.38-29.7-6.67-7.49-15.84-11.63-25.68-12.99-12.49-1.73-25.27,.12-37.42,3.12-15.25,3.77-29.98,9.6-44.2,16.23-16.01,7.46-31.45,16.14-46.38,25.57l2.04,6.04c8.19-5.2,16.52-10.17,25.02-14.84Z"/>
        <path class="cls-7"
              d="M1815.93,196.34c-1.91,7.65-4,15.26-6.26,22.82-4.98,16.6-10.86,33.19-17.72,48.94-6.27,14.4-13.42,28.49-22.01,41.65-10.62,16.28-24.11,31.63-41.99,40.02-14.47,6.79-30.82,7.56-46.31,4.26-18.07-3.85-34.92-12.15-50.79-21.38-8.76-5.09-17.28-10.56-25.69-16.19-16.63-11.16-33.05-22.97-47.3-37.13-11.8-11.72-22.29-25.48-27.06-41.38-4.97-16.55-2.84-33.74,3.66-49.83,.47-1.15,.95-2.29,1.46-3.43l-5.78-2.17c-4.71,10.61-7.85,21.86-8.31,33.53-.66,16.99,5.05,33.34,14.51,47.29,10.77,15.88,25.32,28.8,40.42,40.44,8.2,6.32,16.68,12.26,25.27,18.03,17.15,11.49,34.84,22.43,53.93,30.44,15.92,6.68,33.37,11.28,50.76,9.57,18.18-1.79,34.34-10.41,47.46-22.91,13.54-12.9,23.8-29.02,32.48-45.47,8.03-15.22,14.76-31.12,20.61-47.29,5.59-15.43,10.34-31.16,14.36-47.08l-5.7-2.73Z"/>
    </g>
    <path class="cls-7"
          d="M1914.53,257.52c-1.95-6.69-6.27-12.39-12.29-15.92-6.49-3.8-14.24-5-21.68-4.85l-4.26,6.44c3.21-.28,6.43-.35,9.64-.09,.44,.04,.88,.08,1.31,.12,.24,.03,.48,.06,.73,.09l.1,.02c.88,.14,1.76,.29,2.63,.48,1.65,.36,3.28,.83,4.86,1.43,.16,.06,.32,.12,.48,.19h-.02s.02,0,.03,0l.04,.02c.5,.19,.29,.13,.1,.06,.3,.14,.91,.4,.99,.44,.7,.34,1.39,.71,2.06,1.1,.65,.39,1.29,.81,1.91,1.25,.1,.08,.21,.15,.31,.23h.02c.31,.27,.61,.52,.91,.79,.55,.49,1.08,1.01,1.59,1.56,.23,.25,.46,.51,.69,.78,.11,.13,.22,.27,.33,.4l.03,.03c.86,1.23,1.66,2.47,2.32,3.83,.12,.25,.24,.73,.42,.95,.08,.2,.15,.39,.23,.59,.27,.75,.51,1.51,.72,2.28,.21,.8,.39,1.6,.54,2.41,.07,.37,.12,.74,.18,1.11h0c.03,.26,.06,.52,.09,.78,.18,1.83,.21,3.67,.13,5.51-.04,.98-.12,1.97-.22,2.95-.02,.24-.05,.47-.08,.71v.1h-.01c0,.07-.02,.14-.02,.2-.04,.4-.06,0,0-.16-.11,.24-.17,1.33-.2,1.5-.77,4.62-2.1,9.15-3.73,13.53-.23,.61-.46,1.22-.7,1.83-.11,.29-.23,.58-.35,.86-.05,.12-.1,.25-.15,.37,0,0-.1,.25-.16,.39-.07,.15-.23,.53-.27,.62-.15,.34-.29,.67-.44,1.01-.29,.64-.58,1.28-.87,1.92-1.26,2.7-2.62,5.35-4.05,7.95-7.03,12.75-15.79,24.46-25.19,35.54-8.65,10.19-17.92,19.96-28.27,28.45-.54,.44-1.08,.88-1.62,1.31-.25,.2-.5,.4-.75,.59-.09,.07-.38,.29-.51,.4-1.01,.78-2.04,1.55-3.07,2.3-1.98,1.43-4,2.8-6.07,4.09-1.88,1.18-3.8,2.29-5.77,3.32-.91,.48-1.84,.94-2.77,1.38-.45,.21-.9,.42-1.36,.62-.21,.09-.42,.18-.63,.27h-.02s-.08,.04-.13,.06c-3.22,1.31-6.54,2.39-9.97,3-.35,.06-.71,.12-1.06,.18h.05c-.2,0-.4,.05-.6,.07-.73,.08-1.47,.14-2.21,.18-1.39,.06-2.78,.04-4.16-.09-.31-.03-.62-.09-.92-.1,1.21,.06,.01,0-.34-.07-.63-.11-1.25-.25-1.87-.41-.6-.16-1.2-.34-1.79-.54-.27-.09-.54-.19-.8-.3h-.02s-.1-.04-.25-.11c-.02,0-.03-.02-.05-.02-.05-.02-.09-.04-.14-.05,.03,0,.05,.01,.08,.02-1.05-.49-2.06-1.03-3.03-1.67-.23-.15-.46-.31-.68-.47-.1-.07-.19-.14-.29-.21-.2-.17-.39-.33-.59-.49-1.09,1.68-2.33,3.37-3.71,4.93,2.8,2.26,6.06,3.95,9.55,4.86,6.25,1.64,12.92,.98,19.05-.82,8.55-2.52,16.43-7.09,23.61-12.28,10.4-7.51,19.7-16.44,28.34-25.89,10.57-11.57,20.48-23.94,28.79-37.25,6.2-9.93,11.69-20.64,14.66-32.01,2.07-7.93,2.99-16.6,.66-24.58Z"/>
    <g>
        <path class="cls-7" d="M1611.53,94.25c-.01-.07-.02-.15-.03-.22-.01-.09-.02-.09,.03,.24h0v-.02Z"/>
        <path class="cls-7"
              d="M1609.1,84.08c.42,1.23,.8,2.48,1.13,3.73,.35,1.34,.66,2.69,.91,4.05,.12,.66,.23,1.32,.33,1.98,0,.06,.02,.12,.03,.18,0,.06,.02,.16,.03,.22v.02c.05,.41,.1,.82,.14,1.23,.28,2.71,.36,5.43,.22,8.15-.03,.65-.08,1.3-.14,1.95-.03,.32-.06,.64-.1,.97-.02,.16-.04,.32-.06,.48v.05c-.21,1.3-.42,2.58-.72,3.86-.3,1.31-.66,2.6-1.09,3.87-.2,.59-.41,1.18-.64,1.77-.08,.21-.17,.42-.25,.62,0,0-.23,.53-.3,.68-1.06,2.32-2.38,4.44-3.86,6.51-.08,.1-.17,.21-.25,.31-.19,.24-.39,.47-.59,.71-.43,.5-.87,.98-1.33,1.45-.89,.9-1.83,1.74-2.81,2.53-.11,.09-.36,.28-.46,.35-.26,.19-.52,.37-.78,.55-.56,.39-1.14,.75-1.73,1.1-1.11,.66-2.26,1.21-3.42,1.75-.04,.01-.52,.22-.65,.27-.32,.13-.64,.25-.97,.36-.68,.24-1.37,.46-2.06,.67-1.13,.33-2.28,.6-3.43,.8-.28,.05-.56,.1-.84,.14,0,0-.13,.02-.23,.03-.07,.01-.14,.02-.22,.03,.07-.01,.12-.02,.18-.03-.64,.07-1.28,.14-1.93,.17-1.17,.07-2.35,.08-3.52,.03-.57-.02-1.13-.06-1.69-.11-.28-.03-.56-.05-.84-.09-.1-.01-.2-.02-.29-.04h-.04c-1.19-.2-2.36-.42-3.53-.72-1.1-.28-2.18-.61-3.25-.98-.54-.19-1.07-.39-1.59-.6h-.03c-.05-.03-.15-.07-.21-.1l-.04-.02s-.08-.03-.11-.05l.08,.03c-.3-.13-.61-.27-.91-.41-2.15-1-4.21-2.19-6.16-3.53-.48-.33-.95-.67-1.41-1.02l-.05-.04s-.13-.1-.19-.14h0s-.07-.06-.11-.08l.09,.06c-.28-.22-.56-.44-.83-.67-.93-.77-1.83-1.58-2.7-2.42-.87-.85-1.72-1.73-2.52-2.64-.39-.45-.78-.9-1.15-1.36-.19-.23-.37-.46-.55-.69l.07,.09s-.05-.07-.08-.1c-.05-.07-.14-.19-.15-.2-.04-.05-.07-.09-.1-.14-1.5-2.01-2.85-4.15-4.02-6.37-.57-1.08-1.08-2.19-1.58-3.31-.05-.13-.1-.25-.16-.38-.11-.28-.22-.57-.33-.85-.23-.61-.45-1.22-.65-1.83-.8-2.41-1.39-4.89-1.78-7.41l-.02-.11c-.01-.06-.03-.16-.03-.23v-.05s-.01-.06-.02-.08v.06c-.02-.29-.06-.57-.09-.86-.07-.7-.13-1.41-.17-2.11-.07-1.31-.09-2.62-.05-3.92,.04-1.33,.16-2.66,.31-3.98v-.05l-.02,.15c0-.06,.02-.11,.02-.17,.01-.09,.03-.2,.03-.2,0-.04,.01-.07,.02-.11,.05-.33,.1-.65,.16-.97,.12-.69,.26-1.39,.41-2.07,.3-1.36,.67-2.71,1.09-4.04,.21-.66,.44-1.31,.68-1.96,.12-.33,.25-.66,.37-.98,.06-.16,.13-.33,.2-.49,.02-.05,.04-.1,.05-.13,.01-.03,.03-.06,.05-.11,1.24-2.8,2.69-5.49,4.38-8.04,.43-.65,.88-1.29,1.34-1.93,.23-.32,.47-.64,.71-.96,.02-.03,.1-.13,.15-.19,.13-.17,.26-.33,.39-.49,1.07-1.34,2.2-2.64,3.38-3.89,2.35-2.5,5.26-5.18,7.75-7.09,.07-.05,.3-.23,.34-.25,.16-.12,.32-.24,.48-.36,.32-.23,.64-.46,.96-.69,.67-.47,1.36-.93,2.05-1.38,1.3-.84,2.64-1.62,4.01-2.35,.65-.34,1.3-.67,1.96-.99,.33-.16,.65-.31,.98-.46,.1-.04,.61-.27,.75-.33,1.33-.56,2.69-1.05,4.06-1.49,2.67-.86,5.41-1.49,8.18-1.91,.06,0,.13-.02,.19-.03,.07-.01,.17-.03,.23-.03h.03c.32-.04,.64-.08,.96-.12,.74-.08,1.48-.14,2.22-.19,1.31-.09,2.62-.13,3.94-.13,1.38,0,2.77,.05,4.15,.15,.65,.05,1.29,.1,1.94,.17,.32,.03,.64,.07,.96,.1,.16,.02,.32,.04,.48,.06,.03,0,.14,.02,.24,.03,.14,.02,.65,.09,.73,.1,.32,.05,.64,.1,.95,.15,.39,.06,.77,.14,1.16,.21,.98-2.31,2.02-4.21,2.99-5.71-5.11-1.05-10.32-1.59-15.57-1.42-13.03,.42-25.17,5.33-35.17,13.62-10.33,8.57-18.68,20.33-21.08,33.73-2,11.19,0,22.73,5.58,32.65,5.1,9.07,13.12,16.74,22.73,20.85,4.85,2.07,9.99,3.3,15.28,3.38,5.64,.08,11.2-1.21,16.31-3.57,10.47-4.84,17.43-14.85,19.93-25.93,1.37-6.09,1.57-12.36,.77-18.51-1.88-1.69-5.36-5.11-8.58-9.77Z"/>
        <path class="cls-7" d="M1559.62,127.98c.05,.04,.03,.02-.21-.16l.02,.02,.19,.14Z"/>
        <path class="cls-7" d="M1542.81,88.2c.02-.17,.03-.23,.03-.23,0,.07-.02,.14-.03,.2v.02Z"/>
        <path class="cls-7" d="M1551.65,120.04h0c-.14-.17-.18-.22-.17-.21,.05,.07,.1,.14,.15,.2h0Z"/>
        <path class="cls-7" d="M1542.86,99.42c.02,.09,.02,.08-.04-.3v.02c.02,.09,.03,.18,.04,.27Z"/>
        <path class="cls-7" d="M1585.19,135.42c.07-.01,.14-.02,.21-.03h.02s-.07,0-.27,.04h.04Z"/>
        <path class="cls-7" d="M1568.43,133.09c.07,.03,.05,.01-.28-.11h.03c.08,.05,.16,.08,.25,.11Z"/>
        <path class="cls-7" d="M1587.92,44.28c-.1,.02-.1,.02,.25-.04h-.02c-.08,.01-.16,.02-.23,.04Z"/>
    </g>
    <path class="cls-7"
          d="M1567.7,136.26c.03,.1,.06,.2,.09,.31,.32,1.2,.6,2.4,.84,3.61,.12,.59,.22,1.17,.32,1.76,.05,.29,.09,.59,.14,.88,.02,.13,.04,.26,.06,.38,0,.05,.01,.11,.02,.18,.29,2.47,.44,4.95,.4,7.44-.02,1.2-.08,2.41-.18,3.61-.05,.57-.11,1.15-.18,1.72,0,.04,0,.08-.01,.12,0,.06-.02,.12-.02,.16-.05,.32-.1,.65-.15,.97-.39,2.34-.97,4.64-1.75,6.88-.18,.52-.37,1.04-.58,1.55-.11,.26-.35,.8-.09,.24-.13,.29-.25,.57-.38,.86-.49,1.06-1.03,2.09-1.62,3.09-.57,.96-1.19,1.89-1.85,2.79-.05,.06-.07,.1-.1,.14-.02,.02-.02,.03-.05,.06-.17,.21-.34,.42-.51,.62-.4,.47-.8,.93-1.23,1.37-.77,.81-1.59,1.58-2.45,2.29-.06,.05-.27,.22-.4,.32-.13,.1-.39,.29-.45,.34-.51,.37-1.03,.72-1.57,1.06-.99,.62-2.01,1.18-3.07,1.68-.19,.09-.37,.17-.56,.25,.05-.02-.36,.15-.52,.22-.57,.22-1.14,.43-1.72,.62-1.01,.33-2.04,.6-3.09,.81-.47,.1-.95,.17-1.42,.25h-.12c-.27,.04-.55,.07-.82,.09-.98,.08-1.97,.1-2.96,.07-.51-.02-1.01-.04-1.52-.09-.24-.02-.47-.05-.7-.07-.07,0-.13-.02-.2-.02-1.97-.34-3.89-.79-5.77-1.48-.22-.08-.45-.17-.67-.25-.05-.02-.2-.08-.34-.13-.13-.06-.37-.16-.44-.19-.25-.11-.5-.23-.75-.35-.94-.45-1.86-.94-2.76-1.47-.88-.52-1.74-1.08-2.58-1.67-.39-.27-.77-.56-1.15-.84-.07-.05-.13-.1-.2-.16-.23-.18-.45-.36-.67-.55-1.67-1.39-3.23-2.9-4.68-4.52-.73-.81-1.42-1.65-2.1-2.5h0c-.07-.1-.13-.18-.2-.27-.16-.21-.32-.43-.47-.64-.34-.46-.67-.93-.99-1.4-1.28-1.89-2.43-3.86-3.46-5.89-.49-.97-.94-1.95-1.37-2.94-.05-.11-.12-.27-.16-.38-.1-.25-.2-.51-.3-.77-.23-.59-.45-1.18-.65-1.77-.75-2.17-1.37-4.38-1.84-6.62-.11-.54-.22-1.09-.31-1.64-.05-.31-.11-.63-.16-.94-.02-.14-.06-.42-.08-.56-.14-1.08-.24-2.16-.31-3.24-.14-2.36-.12-4.72,.09-7.07,.04-.5,.1-1,.16-1.5,.02-.12,.04-.31,.06-.43,.05-.32,.1-.64,.16-.96,.21-1.2,.47-2.39,.78-3.57,.3-1.15,.65-2.29,1.05-3.41,.19-.55,.4-1.09,.61-1.63,.05-.12,.1-.25,.15-.37,.14-.32,.28-.64,.43-.96,1.05-2.26,2.29-4.43,3.71-6.49,.35-.51,.72-1.01,1.09-1.51l.03-.04c.1-.13,.21-.26,.31-.4,.23-.28,.46-.56,.69-.84,.87-1.03,1.78-2.02,2.73-2.98,4.55-4.55,9.44-8.13,15.27-11.08,.64-.32,1.28-.63,1.93-.93,.32-.15,.64-.29,.96-.43,.04-.02,.17-.07,.24-.11,.13-.05,.26-.11,.4-.16,.47-.19,.94-.36,1.41-.54-.17-2.3-.21-4.49-.17-6.51-.32,.11-.64,.21-.95,.33-6.37,2.32-12.19,5.66-17.52,9.82-4.91,3.83-9.29,8.3-12.65,13.55-5.59,8.73-7.99,19.33-7.06,29.64,.89,9.9,4.42,19.59,10.23,27.67,5.46,7.58,12.83,13.97,21.82,16.91,9.02,2.95,19.08,1.53,26.97-3.75,8.55-5.72,13.62-15.21,15.23-25.23,1.06-6.57,.88-13.24-.38-19.72-1.71-.55-4.15-1.43-6.96-2.71Zm1.43,6.92c-.02-.16-.02-.14,0,0h0Zm-53.92-29.5c.22-.29,.09-.12,0,0h0Zm53.98,42.52c0-.07,0-.05,0,0h0Z"/>
    <path class="cls-7"
          d="M1524.08,217.11c-19.85-13.03-34.8-30.74-34.82-42.96-.02-12.23,13.73-20.32,13.73-20.32l5.27,5.58,8.69,15.2,15.2,10.24-4.65,16.44-3.41,15.82Z"/>
    <path class="cls-7"
          d="M1726.21,354.8c17.68,13.96,58.28,40.25,68.17,22.57,7.52-13.44,6.86-38.97,6.86-38.97l-7.91-40.02-5.42-14.48-12.27,24.72s-15.47,28.97-49.44,46.18Z"/>
    <path class="cls-2"
          d="M1726.79,30.37c-20.47,8.84-12.87,22.18,17.84,11.48,30.71-10.7,30.56-24.97,10.55-20.78-20.01,4.19-28.38,9.31-28.38,9.31Z"/>
    <path class="cls-2"
          d="M1800.16,118.47c-11.17,1.24-10.31,10.23,13.03,14.58,18.3,3.41,26.85-3.73,13.96-9.62-14.27-6.51-26.99-4.96-26.99-4.96Z"/>
    <path class="cls-3"
          d="M647,1690.62c238.76-251.83,567.62-247.49,741.07-343.01,125.15-68.93,104.89-145.36,10.69-209.34,34.07,29.57,48.17,58.05,41.11,85.6-14.89,58.16-174.08,86-295.31,122-698.85,207.55-604.13,513.64-902.73,571.69,161.31-18.05,286.96-102.25,405.18-226.94Z"/>
</svg>
