<svg id="Livello_1" data-name="Livello 1" xmlns="http://www.w3.org/2000/svg" viewBox="0 0 1200 1200">
    <defs>
        <style>.cls-1{fill:none;}</style>
    </defs>
    <rect class="cls-1" width="1200" height="1200"/>
    <path d="M1148.26,559.6a232.22,232.22,0,0,0,36.55-58.11c32-74.64,9.57-153.95-31.3-220.37-26.81-43.58-60.43-83.1-95.87-119.86-36.42-37.78-77-71.85-123.09-97.19C865.24,26,784.47,7.17,705.54,16.46c-67.47,8-125.48,35-178.6,75.69-33.57-25.3-69.85-48-110.84-57.65-55.21-13-110,1.53-157.84,30.26C189.31,106.19,128.9,168.56,82.08,233.43c-33.89,47-61.19,104.4-56,163.78,4.19,47.87,26.05,89.62,54.46,126.91-2.87,12-5.13,24-6.76,35.94a175.3,175.3,0,0,0-50.69,53.26c-36.75,60.77-28,141.46,14.67,197,25.39,33,59.54,54,97.18,64.94,3.83,32.71,16.1,64.55,35.93,90.9,33.84,45,82.73,69.14,135.38,76.74,1.58,4.95,3.36,9.88,5.43,14.75C357.5,1165.38,487,1202.76,593.53,1174.81c29.54,9.08,61.83,11.77,90.34,10.92,52.39-1.55,104.62-17,146.16-49.56,29.38-23.05,49.34-53.37,60.38-87.42,60.39-9.65,116.53-47.35,142.08-103.91a209.73,209.73,0,0,0,18-74.45,185.28,185.28,0,0,0,40.83-12.17C1168.84,824.6,1204,741,1190.44,660,1184.58,625,1168.45,589.74,1148.26,559.6ZM869.51,88.67c84.68,33.11,152.46,100.71,207.76,170.94,40,50.79,81,117.6,72.13,184.53-3.87,29.34-17.87,57-36.79,79.47-5.5,6.53-13.82,15.91-20.46,21.28-14.45,11.67-27.53,12.51-45,8.32-11-2.64-24.07-7.65-32.59-11.35-28.42-12.32-55.38-28.2-81.11-45.37-62.26-41.57-118.93-93.35-165.25-152.21-4.43-5.64-8.7-11.41-12.88-17.24a239.42,239.42,0,0,0,28.86-30.24,259.1,259.1,0,0,0,31.15-49.17c14-29.07-3.39-41.23-24.8-16.88C748,279.12,698.4,317.39,639.7,333.92c-46.19,13-103.55,11.64-136.91-15.09-23.09-18.5-28.91-41.65-28.84-60.48.14-37.13,22.92-69.86,47.87-95.18,46-46.68,101.3-80.19,162.71-92.79C745.23,57.91,810.86,65.74,869.51,88.67ZM84.36,788C48.48,749.09,38.51,686.39,65.65,640.25c12.18-20.7,31-38.45,52.93-48.16,19.54-8.64,41-10.48,59-1.77,23.53,11.36,42.33,37.31,47.79,62.52,3.56,16.43.88,32.88-3.88,49.45a181.54,181.54,0,0,0-63.59,61.76,166.09,166.09,0,0,0-21.71,59A139.46,139.46,0,0,1,84.36,788ZM219.47,946.43c-37.71-41.08-47.84-107-19-155.45,23.34-39.27,76.24-72.56,118.35-51.41,23.49,11.79,42.69,37.25,48.91,62.64,4.28,17.47,2,34.8-2.74,52.26-42.49,32-66.83,83.43-66.81,136.43C268.41,984,240.76,969.63,219.47,946.43Zm306.64,186.83c-69,1.07-139.21-27.76-168.2-94.67-15.9-36.72-13.3-78.65,8.09-112.48,18.31-29,51.58-51.59,85.16-52.55,36.18-1,74.33,28.08,84.08,64.77,8.82,33.19-8.82,68.19-18.72,101C506.75,1071.69,505,1106.4,526.11,1133.26ZM1133.2,749.7c-21.66,52.8-76.81,77.6-131.7,73.89-32.28-2.19-70.59-10.43-102.84-33.79-22.06-16-41.63-3-21.13,24.47,25.9,34.75,72.69,55.37,122,58.8-3.58,37.87-18.47,72.55-49.71,97.39-35.44,28.19-84.64,34.64-130.1,28.4-28.36-3.89-61.16-17.79-82.85-33.36-20.36-14.62-36.84-5.71-22.79,17.79,23.92,40,71.28,62.34,121.55,67.14C805,1111.29,731,1139.12,660.43,1135c-26.85-1.55-55.63-6.84-79.16-20.48-6.86-4-14.1-10-17.26-14.56a29.57,29.57,0,0,1-4.72-13.73c-.62-15.39,4.23-29.28,9.91-46.4,6.1-18.33,12.72-36.58,15.93-55.7,8.4-50-8.49-95.09-47.28-128.13-33.4-28.43-75.81-39.51-118.16-28.32.8-23.15-3.49-45.83-14.27-67.34-16.11-32.14-45.69-61-80.19-72.22a114.12,114.12,0,0,0-49.19-4.6c2.47-26.77-1.73-53.11-14.89-77.4-16.24-30-44.13-56.91-77.13-67a113.55,113.55,0,0,0-56.47-2.36C138,478,166.8,422.75,219.23,360.58c17.81-21.12,6.45-33.9-14.45-22.24-46.08,25.7-81.6,72.58-104.48,126C90,446.84,82.11,428.23,78.08,408.18,69.3,364.46,87,318.11,112,278.85c18.77-29.46,41.6-56,65.72-81.2,26.11-27.27,53.79-53.79,84.75-75.54,21.89-15.38,45.4-29.08,71.23-36.59,18.76-5.46,40.73-7.39,57.8-4.72,35.51,5.54,67.37,23.63,96.88,45-53.29,54.61-91.42,134.87-42.42,205.06,34.33,49.17,99.12,65.35,156.23,60.55a270.68,270.68,0,0,0,112.48-35.12c44,60.71,98.47,113.43,158.22,158.62,50.6,38.26,111.69,79.12,175.54,90,22.18,3.8,44.35,3.39,62.9-9.65C1139.33,641.74,1154.51,697.76,1133.2,749.7Z"/>
</svg>
