<?xml version="1.0" encoding="UTF-8"?>
<svg id="v2" xmlns="http://www.w3.org/2000/svg" viewBox="0 0 73 48">
    <defs>
        <style>.cls-1{fill:#ffdb00;}.cls-2{fill:#1e1e1e;}</style>
    </defs>
    <g>
        <path class="cls-1"
              d="M44.16,2.65c.44,0,1.15-.05,1.54,.2,.17,.11,.22,.26,.33,.42-.03-.04-.05-.07-.06-.09,.03,.05,.06,.11,.08,.16,.58,1.7,1.12,3.41,1.65,5.12,.48,1.55,.96,3.1,1.44,4.65,.39,1.28,2.2,.99,2.28-.31,.17-2.58,.41-5.2,.96-7.73,.1-.46,.17-1.27,.51-1.62,.48-.5,1.56-.26,2.14-.14,.65,.13,1.57,.28,1.88,.96,.33,.72-.21,1.81-.38,2.52-.95,3.91-1.57,7.9-2.11,11.88-.12,.86-.23,1.72-.33,2.58-.05,.44,0,1.09-.46,1.26-.62,.23-1.92-.12-2.48-.37-.77-.34-1.09-.6-1.45-1.31-1.08-2.16-1.82-3.82-3.09-5.96-.46-.78-.85-.7-.91,.15-.15,2-.23,3.15-.36,4.76-.07,.81-.62,1.19-1.47,1.27-.85,.09-2.33,.05-2.35-1.09,.13-4.33,.45-8.68,.83-13.01,.11-.51,.15-1.06,.18-1.6,.01-.24,.02-.49,.03-.75,0-.07,.01-.15,.02-.22,.11-1.15,.38-1.74,1.57-1.73Z"/>
        <path class="cls-1"
              d="M30.9,3.39c.37-1.2,2.56-.97,3.56-1,1.49-.05,2.7-.1,4.19,.03,.95,.08,1.4,.24,1.47,1.17,.05,.55-.13,2.67-.29,3.09-.23,.63-.95,.46-2.62,.49-.65,0-1.9,.1-2.55,.2-1.39,.2-1.58,1.16,.03,1.65,.95,.29,2.19,.45,3.01,.48,1.37,.05,1.6,.37,1.45,1.89-.02,.19-.04,.38-.06,.57,0,0,0,.03,0,.06,0,.01,0,.02-.01,.04-.03,.11-.05,.22-.08,.33,0,.02-.02,.06-.04,.09-.03,.06-.06,.12-.09,.17,0,0-.01,.02-.02,.03-.04,.04-.09,.08-.13,.13-.05,.03-.1,.06-.16,.09-.06,.02-.11,.04-.17,.05-.05,.01-.11,.02-.16,.04-.17,.01-.33,.03-.5,.04-1.43,.05-2.38,.07-3.42,.43-1.14,.39-.87,1.17,.25,1.47,.68,.18,2.55,.33,3.49,.49,.82,.14,1.04,.49,1.06,1.27,.03,.92,.09,2.05-.11,2.96-.11,.49-.38,.63-.93,.68-.65,.06-1,.04-1.65,.05-1.08,.01-2.18,.06-3.27,.06-.31-.94-1.04-1.9-1.44-2.59-.28-.48-.57-.97-.85-1.45v-.06c-.09-2.17-.15-4.35-.17-6.52,0-1.09,0-2.19,.02-3.28,.02-.97-.11-2.2,.17-3.13Z"/>
        <path class="cls-1"
              d="M16.88,3.19c.71-.22,1.92-.41,2.52-.49,1.71-.23,3.54-.21,5.16,.42,1.5,.59,2.66,1.77,3.17,3.3,.59,1.78,.71,4.64-1.26,6.28-.44,.37-.42,.53-.02,1.08,1.13,1.53,2.08,3.21,3.04,4.85,.15,.26,.3,.52,.45,.78-1.16-.06-2.38,.15-3.43,.47-.15-.22-.3-.44-.45-.65-.86-1.19-1.81-2.32-2.79-3.52-.84-1.03-1.48-.94-1.35,.4,.22,2.11,1.09,6.03,.95,6.98-.06,.41-1.19,.46-1.56,.54l-.19,.04c-.55-.08-1.11-.12-1.67-.13-.11-.1-.21-.24-.26-.43-.38-1.7-.57-3.45-.82-5.17-.42-2.83-.83-5.65-1.23-8.48-.17-1.17-.33-2.33-.49-3.5-.12-.84-.12-1.01-.24-1.76-.08-.53-.02-.85,.46-1Z"/>
        <path class="cls-1"
              d="M8.27,24.43c-.66-1.48-1.23-3-1.8-4.52-1.31-3.5-2.59-7.04-3.65-10.63-.56-1.9,1.31-2.46,2.74-3.04,1.79-.73,3.81-1.62,5.75-1.79,1.28-.11,1.73,1.09,2.04,2.14,.16,.55,.36,1.35,.24,1.82-.08,.29-.64,.51-.93,.62-1.33,.51-2.71,1.05-3.85,1.76-1.26,.78-.83,1.29,.22,1.25,1.58-.05,3.24-.65,4.77-1.06,.95-.25,2.2,3.37,.73,4.18-.96,.53-2.43,.99-3.45,1.39-.54,.21-.71,.65-.46,1.29,.39,1,.78,2,1.16,3.01,.23,.61,.47,1.23,.68,1.85,.08,.22,.15,.44,.2,.67,.13,.57,.23,.92-.29,1.23-.81,.48-1.97,.95-2.94,.94-.79,0-.88-.45-1.17-1.1Z"/>
        <path class="cls-1"
              d="M23.36,44.97c-1.49,.46-3.03,.69-4.59,.61-2.62-.13-5.22-1.24-6.87-3.33-1.88-2.4-2.53-5.97-1.86-8.91,.71-3.12,2.83-6.09,5.98-7.05,2.08-.63,5.03-.73,6.91,.32,.8,.54,.8,2.66,.41,3.43-.46,.91-1.66,.66-2.49,.7-1.93,.1-4.04,.8-5.01,2.61-1.81,3.35,1.3,6.89,4.79,6.69,.51-.03,1.03-.11,1.53-.25,.49-.14,.95-.43,1.47-.35,.91,.15,1.48,.88,1.77,1.71,.05,.36,.09,.71,.14,1.07,.03,.18,.06,.35,.09,.52-.02,.45-.1,.92-.35,1.29-.4,.59-1.3,.76-1.94,.96Z"/>
        <path class="cls-1"
              d="M31.27,43.37c-.95,.18-2.62,.59-3.23-.53-.03-.06-.05-.13-.07-.2,.02-.74-.09-1.49-.32-2.2-.21-1.67-.4-3.34-.58-5.01-.43-3.94-.86-7.89-1.21-11.84-.03-.54-.05-.86,.43-1.15,.57-.35,1.3-.48,1.94-.59,.71-.12,2.53-.45,2.95,.35,.16,.3,.14,.83,.17,1.16,.07,.6,.14,1.2,.21,1.79,.45,3.82,.9,7.65,1.35,11.47,.18,1.52,.35,3.04,.51,4.57,.04,.36,.11,.73,.1,1.1,0,1.01-1.48,.92-2.25,1.07Z"/>
        <path class="cls-1"
              d="M49.87,28.86c-.58-.01-1.17-.04-1.75-.07-.68-.03-1.74-.1-2.42-.14-.64-.04-.74,.11-.76,.71-.14,4.19-.15,8.52-.44,12.71-.02,.33-.05,1.35-.3,1.58-.41,.38-1.55,.29-1.96,.27-.5-.02-1.71-.06-2.05-.58-.15-.23-.07-.73-.07-1.01,0-2.31,.06-4.63,.11-6.94,.04-1.96,.11-4.29,.15-6.25,.02-.63-.06-.82-.68-.82-.6,0-4.8,.18-5.27-.46-.4-.55-.28-1.92-.26-2.54,.02-.74,0-1.86,.93-1.94,4.99-.23,10.02-.05,15,.41,1.02,.1,1.69,.19,1.75,1.34,.05,.94,.11,2.83-.65,3.53-.34,.32-.91,.22-1.33,.21Z"/>
        <path class="cls-1"
              d="M65.48,31.35c-.34,.78-1.35,1.23-2.04,1.63-.88,.51-1.76,1-2.65,1.49-.48,.26-.99,.54-1.29,1.02-.48,.78-.81,1.91-1.07,2.78-.48,1.58-.97,3.17-1.45,4.75-.26,.84-.69,2.62-1.49,2.66-.63,.03-1.2-.11-1.79-.31-.52-.17-1.4-.5-1.83-.86-.64-.55-.04-1.71,.15-2.39,.57-1.97,1.17-3.94,1.76-5.9,.16-.53,.4-1.09,.5-1.64,.1-.57-.13-1.02-.32-1.54-.34-.94-.69-1.88-1.04-2.82,1-1.07,1.23-2.86,1.28-4.25,0-.28,0-.55,0-.83,.37-.09,.74-.15,1.08-.16,.43,0,1.1,.03,1.4,.38,.28,.31,.56,1.25,.63,1.66,.14,.89,.28,2.02,.38,2.92,.12,1.05,.66,1.24,1.47,.27,.6-.71,.94-1.37,1.36-2.02,.26-.4,.62-.9,1.13-.91,.67-.01,1.52,.66,1.98,1.07,.67,.61,2.3,2,1.87,3Z"/>
        <path class="cls-1"
              d="M68.94,10.86c-.38,.16-1.15,.57-1.51,.24-.21-.19-.46-.71-.76-1.06-.63-.74-2.02-1.28-3.05-.46-.99,.78-1.27,2.06-.65,3.03,.59,.92,1.65,1.74,2.42,2.5,1.89,1.86,3.01,4.85,1.33,7.23-1.82,2.58-5.55,2.18-8.09,1.02-1-.46-2.19-.99-2.22-2.09,.02-.18,.05-.36,.07-.54,.21-.73,.74-1.39,1.41-1.83,.57-.38,1.09-.57,1.55-.03,.46,.55,1.77,1.15,2.67,.57,.71-.45,1.11-1.1,.63-2.13-.65-1.39-2.19-2.08-3.25-3.09-.93-.89-1.26-2.15-1.19-3.4,.14-2.36,1.65-4.7,3.92-5.47,1.88-.64,4.03-.46,5.73,.58,.88,.54,1.59,1.32,2.02,2.26,.18,.4,.44,.99,.37,1.43-.1,.63-.89,1.03-1.41,1.25Z"/>
    </g>
    <g>
        <path class="cls-2"
              d="M19.9,8.08c.07,.58,.14,1.16,.21,1.74l.03,.28c0,.16,.03,.31,.1,.45,.05,.14,.13,.27,.24,.37,.22,.2,.51,.36,.82,.34,.31-.01,.64-.07,.94-.16,.26-.09,.54-.19,.77-.35,.31-.22,.6-.48,.78-.83,.19-.38,.29-.8,.25-1.22-.03-.28-.07-.48-.18-.73-.1-.23-.21-.4-.38-.6-.43-.5-1.1-.68-1.73-.73-.28-.02-.56,0-.84,.05-.04,0-.08,0-.12,.02-.02,0-.04,0-.06,0-.04,0-.08,.03-.13,.05h-.02s-.09,.05-.13,.07c-.04,.02-.08,.05-.11,.07-.01,.01-.03,.02-.04,.03-.03,.02-.06,.05-.09,.08-.01,.01-.02,.03-.03,.04-.03,.03-.06,.07-.08,.11-.01,.01-.02,.03-.03,.04-.01,.02-.02,.03-.03,.05-.01,.02-.02,.04-.03,.06-.09,.16-.15,.35-.13,.53v.03c0,.07,.01,.14,.03,.21Z"/>
        <path class="cls-2" d="M45.97,3.17c-.04-.08-.07-.11,0,0h0Z"/>
        <path class="cls-2"
              d="M72.62,8.9c-.89-5.53-7.75-7.62-12.3-5.25-.37,.19-.71,.42-1.04,.67-.02-.25-.07-.49-.16-.74-.37-1.03-1.21-1.75-2.21-2.15-1.73-.7-4.43-1.07-5.79,.52-.66,.77-.86,1.86-1.06,2.83-.14,.71-.25,1.42-.36,2.14-.46-1.51-.95-3-1.53-4.45-.55-1.39-1.71-1.96-3.14-2.08-1.19-.1-2.48-.06-3.43,.69C40.39-.21,38.15,.01,36.5,.02c-1.96,.01-4.59-.24-6.36,.78-.91,.53-1.36,1.4-1.58,2.41-.08-.1-.16-.21-.25-.3C25.43-.25,20.49-.14,16.68,.89c-1.43,.39-2.35,1.09-2.55,2.34-1.5-1.61-3.86-1.05-5.91-.41-1.23,.38-2.43,.83-3.62,1.33-.86,.36-1.8,.69-2.57,1.24C.94,6.16,.24,7.45,.35,8.81c.08,1.04,.54,2.1,.86,3.08,.76,2.35,1.57,4.69,2.42,7.01,.76,2.08,1.54,4.16,2.42,6.2,.35,.82,.67,1.74,1.46,2.25,.78,.5,1.74,.57,2.65,.44-.37,.48-.72,.98-1.03,1.53-3.39,6.04-1.4,14.79,5.24,17.61,3.18,1.35,6.82,1.24,10.05,.14,1.2-.41,2.19-.91,2.82-1.84,1.1,.71,2.35,.75,3.66,.55,1.5-.23,3.66-.33,4.53-1.79,.38-.63,.44-1.35,.38-2.06-.14-1.56-.33-3.11-.51-4.66-.26-2.3-.54-4.6-.81-6.9,.22,.05,.45,.1,.69,.12,.93,.1,1.88,.14,2.82,.16-.12,4.05-.35,8.12-.21,12.16,.06,1.77,.86,2.97,2.62,3.26,1.66,.28,4.48,.57,5.64-1.02,.73-1,.64-2.46,.71-3.65,.08-1.45,.15-2.9,.21-4.35,.08-2,.15-4,.22-6,.6,.03,1.2,.07,1.8,.09,.6,.02,1.21,.06,1.8,0,.11,.29,.21,.58,.32,.86,.22,.59,.43,1.18,.65,1.77,.05,.14,.09,.29,.15,.43-.05,.2-.09,.43-.11,.5-.2,.65-.4,1.31-.59,1.96-.47,1.57-.94,3.14-1.4,4.71-.46,1.58-1.04,3.32,.3,4.66,.61,.6,1.45,.92,2.24,1.21,1.01,.38,2.18,.79,3.28,.74,1.53-.07,2.54-.96,2.99-2.37,.3-.95,.58-1.9,.87-2.85,.61-1.98,1.21-3.95,1.81-5.93,1.21-.66,2.42-1.32,3.6-2.02,1.82-1.08,3.85-2.91,2.65-5.23-.64-1.22-1.82-2.32-2.84-3.22-.03-.03-.07-.06-.1-.09,1.78-.42,3.36-1.42,4.36-3.18,1.69-2.98,.8-6.47-1.31-8.98-.25-.29-.52-.56-.8-.82,.72,.46,2.06,.24,3.51-.58,1.46-.82,2.53-2.11,2.25-3.85ZM44.16,2.65c.44,0,1.15-.05,1.54,.2,.17,.11,.22,.26,.33,.42-.03-.04-.05-.07-.06-.09,.03,.05,.06,.11,.08,.16,.58,1.7,1.12,3.41,1.65,5.12,.48,1.55,.96,3.1,1.44,4.65,.39,1.28,2.2,.99,2.28-.31,.17-2.58,.41-5.2,.96-7.73,.1-.46,.17-1.27,.51-1.62,.48-.5,1.56-.26,2.14-.14,.65,.13,1.57,.28,1.88,.96,.33,.72-.21,1.81-.38,2.52-.95,3.91-1.57,7.9-2.11,11.88-.12,.86-.23,1.72-.33,2.58-.05,.44,0,1.09-.46,1.26-.62,.23-1.92-.12-2.48-.37-.77-.34-1.09-.6-1.45-1.31-1.08-2.16-1.82-3.82-3.09-5.96-.46-.78-.85-.7-.91,.15-.15,2-.23,3.15-.36,4.76-.07,.81-.62,1.19-1.47,1.27-.85,.09-2.33,.05-2.35-1.09,.13-4.33,.45-8.68,.83-13.01,.11-.51,.15-1.06,.18-1.6,.01-.24,.02-.49,.03-.75,0-.07,.01-.15,.02-.22,.11-1.15,.38-1.74,1.57-1.73Zm-13.26,.74c.37-1.2,2.56-.97,3.56-1,1.49-.05,2.7-.1,4.19,.03,.95,.08,1.4,.24,1.47,1.17,.05,.55-.13,2.67-.29,3.09-.23,.63-.95,.46-2.62,.49-.65,0-1.9,.1-2.55,.2-1.39,.2-1.58,1.16,.03,1.65,.95,.29,2.19,.45,3.01,.48,1.37,.05,1.6,.37,1.45,1.89-.02,.19-.04,.38-.06,.57,0,0,0,.03,0,.06,0,.01,0,.02-.01,.04-.03,.11-.05,.22-.08,.33,0,.02-.02,.06-.04,.09-.03,.06-.06,.12-.09,.17,0,0-.01,.02-.02,.03-.04,.04-.09,.08-.13,.13-.05,.03-.1,.06-.16,.09-.06,.02-.11,.04-.17,.05-.05,.01-.11,.02-.16,.04-.17,.01-.33,.03-.5,.04-1.43,.05-2.38,.07-3.42,.43-1.14,.39-.87,1.17,.25,1.47,.68,.18,2.55,.33,3.49,.49,.82,.14,1.04,.49,1.06,1.27,.03,.92,.09,2.05-.11,2.96-.11,.49-.38,.63-.93,.68-.65,.06-1,.04-1.65,.05-1.08,.01-2.18,.06-3.27,.06-.31-.94-1.04-1.9-1.44-2.59-.28-.48-.57-.97-.85-1.45v-.06c-.09-2.17-.15-4.35-.17-6.52,0-1.09,0-2.19,.02-3.28,.02-.97-.11-2.2,.17-3.13Zm-14.02-.2c.71-.22,1.92-.41,2.52-.49,1.71-.23,3.54-.21,5.16,.42,1.5,.59,2.66,1.77,3.17,3.3,.59,1.78,.71,4.64-1.26,6.28-.44,.37-.42,.53-.02,1.08,1.13,1.53,2.08,3.21,3.04,4.85,.15,.26,.3,.52,.45,.78-1.16-.06-2.38,.15-3.43,.47-.15-.22-.3-.44-.45-.65-.86-1.19-1.81-2.32-2.79-3.52-.84-1.03-1.48-.94-1.35,.4,.22,2.11,1.09,6.03,.95,6.98-.06,.41-1.19,.46-1.56,.54l-.19,.04c-.55-.08-1.11-.12-1.67-.13-.11-.1-.21-.24-.26-.43-.38-1.7-.57-3.45-.82-5.17-.42-2.83-.83-5.65-1.23-8.48-.17-1.17-.33-2.33-.49-3.5-.12-.84-.12-1.01-.24-1.76-.08-.53-.02-.85,.46-1Zm-2.24,18.7c-.44-1.24-.92-2.47-1.4-3.7,.29-.11,.58-.23,.87-.34,.6-.24,1.24-.46,1.79-.8,.3,2.23,.56,4.48,1.05,6.67-.1,.02-.21,.03-.32,.05-.54,.09-1.05,.24-1.55,.42,.02-.78-.21-1.59-.46-2.29Zm10.14,13.88c.06,.56,.13,1.11,.19,1.67-.55-.24-1.15-.37-1.76-.34-1.16,.07-2.13,.76-3.34,.6-.73-.1-1.36-.44-1.79-1.01-.32-.43-.49-1.13-.42-1.55,.12-.79,.65-1.39,1.49-1.73,1.26-.52,2.61-.19,3.91-.49,.52-.12,.96-.36,1.34-.67,.13,1.17,.25,2.34,.38,3.52ZM8.27,24.43c-.66-1.48-1.23-3-1.8-4.52-1.31-3.5-2.59-7.04-3.65-10.63-.56-1.9,1.31-2.46,2.74-3.04,1.79-.73,3.81-1.62,5.75-1.79,1.28-.11,1.73,1.09,2.04,2.14,.16,.55,.36,1.35,.24,1.82-.08,.29-.64,.51-.93,.62-1.33,.51-2.71,1.05-3.85,1.76-1.26,.78-.83,1.29,.22,1.25,1.58-.05,3.24-.65,4.77-1.06,.95-.25,2.2,3.37,.73,4.18-.96,.53-2.43,.99-3.45,1.39-.54,.21-.71,.65-.46,1.29,.39,1,.78,2,1.16,3.01,.23,.61,.47,1.23,.68,1.85,.08,.22,.15,.44,.2,.67,.13,.57,.23,.92-.29,1.23-.81,.48-1.97,.95-2.94,.94-.79,0-.88-.45-1.17-1.1Zm15.09,20.54c-1.49,.46-3.03,.69-4.59,.61-2.62-.13-5.22-1.24-6.87-3.33-1.88-2.4-2.53-5.97-1.86-8.91,.71-3.12,2.83-6.09,5.98-7.05,2.08-.63,5.03-.73,6.91,.32,.8,.54,.8,2.66,.41,3.43-.46,.91-1.66,.66-2.49,.7-1.93,.1-4.04,.8-5.01,2.61-1.81,3.35,1.3,6.89,4.79,6.69,.51-.03,1.03-.11,1.53-.25,.49-.14,.95-.43,1.47-.35,.91,.15,1.48,.88,1.77,1.71,.05,.36,.09,.71,.14,1.07,.03,.18,.06,.35,.09,.52-.02,.45-.1,.92-.35,1.29-.4,.59-1.3,.76-1.94,.96Zm7.91-1.6c-.95,.18-2.62,.59-3.23-.53-.03-.06-.05-.13-.07-.2,.02-.74-.09-1.49-.32-2.2-.21-1.67-.4-3.34-.58-5.01-.43-3.94-.86-7.89-1.21-11.84-.03-.54-.05-.86,.43-1.15,.57-.35,1.3-.48,1.94-.59,.71-.12,2.53-.45,2.95,.35,.16,.3,.14,.83,.17,1.16,.07,.6,.14,1.2,.21,1.79,.45,3.82,.9,7.65,1.35,11.47,.18,1.52,.35,3.04,.51,4.57,.04,.36,.11,.73,.1,1.1,0,1.01-1.48,.92-2.25,1.07Zm18.6-14.51c-.58-.01-1.17-.04-1.75-.07-.68-.03-1.74-.1-2.42-.14-.64-.04-.74,.11-.76,.71-.14,4.19-.15,8.52-.44,12.71-.02,.33-.05,1.35-.3,1.58-.41,.38-1.55,.29-1.96,.27-.5-.02-1.71-.06-2.05-.58-.15-.23-.07-.73-.07-1.01,0-2.31,.06-4.63,.11-6.94,.04-1.96,.11-4.29,.15-6.25,.02-.63-.06-.82-.68-.82-.6,0-4.8,.18-5.27-.46-.4-.55-.28-1.92-.26-2.54,.02-.74,0-1.86,.93-1.94,4.99-.23,10.02-.05,15,.41,1.02,.1,1.69,.19,1.75,1.34,.05,.94,.11,2.83-.65,3.53-.34,.32-.91,.22-1.33,.21Zm15.61,2.49c-.34,.78-1.35,1.23-2.04,1.63-.88,.51-1.76,1-2.65,1.49-.48,.26-.99,.54-1.29,1.02-.48,.78-.81,1.91-1.07,2.78-.48,1.58-.97,3.17-1.45,4.75-.26,.84-.69,2.62-1.49,2.66-.63,.03-1.2-.11-1.79-.31-.52-.17-1.4-.5-1.83-.86-.64-.55-.04-1.71,.15-2.39,.57-1.97,1.17-3.94,1.76-5.9,.16-.53,.4-1.09,.5-1.64,.1-.57-.13-1.02-.32-1.54-.34-.94-.69-1.88-1.04-2.82,1-1.07,1.23-2.86,1.28-4.25,0-.28,0-.55,0-.83,.37-.09,.74-.15,1.08-.16,.43,0,1.1,.03,1.4,.38,.28,.31,.56,1.25,.63,1.66,.14,.89,.28,2.02,.38,2.92,.12,1.05,.66,1.24,1.47,.27,.6-.71,.94-1.37,1.36-2.02,.26-.4,.62-.9,1.13-.91,.67-.01,1.52,.66,1.98,1.07,.67,.61,2.3,2,1.87,3Zm-6.22-5.29h0Zm9.68-15.2c-.38,.16-1.15,.57-1.51,.24-.21-.19-.46-.71-.76-1.06-.63-.74-2.02-1.28-3.05-.46-.99,.78-1.27,2.06-.65,3.03,.59,.92,1.65,1.74,2.42,2.5,1.89,1.86,3.01,4.85,1.33,7.23-1.82,2.58-5.55,2.18-8.09,1.02-1-.46-2.19-.99-2.22-2.09,.02-.18,.05-.36,.07-.54,.21-.73,.74-1.39,1.41-1.83,.57-.38,1.09-.57,1.55-.03,.46,.55,1.77,1.15,2.67,.57,.71-.45,1.11-1.1,.63-2.13-.65-1.39-2.19-2.08-3.25-3.09-.93-.89-1.26-2.15-1.19-3.4,.14-2.36,1.65-4.7,3.92-5.47,1.88-.64,4.03-.46,5.73,.58,.88,.54,1.59,1.32,2.02,2.26,.18,.4,.44,.99,.37,1.43-.1,.63-.89,1.03-1.41,1.25Z"/>
    </g>
</svg>
