<?xml version="1.0" encoding="UTF-8"?>
<svg id="Livello_4" xmlns="http://www.w3.org/2000/svg" viewBox="0 0 108 108">
    <defs>
        <style>.cls-1{fill:#fff;}.cls-2{fill:#ffec00;}.cls-3{fill:url(#Sfumatura_senza_nome_4);}</style>
        <radialGradient id="Sfumatura_senza_nome_4" cx="54" cy="54" fx="54" fy="54" r="52"
                        gradientTransform="matrix(1, 0, 0, 1, 0, 0)" gradientUnits="userSpaceOnUse">
            <stop offset="0" stop-color="#ffb600"/>
            <stop offset=".8" stop-color="#ffdb00"/>
        </radialGradient>
    </defs>
    <g>
        <path class="cls-3"
              d="M54,106c-2.82,0-5.48-1.1-7.47-3.1L5.1,61.47c-2-2-3.1-4.65-3.1-7.47s1.1-5.48,3.1-7.47L46.53,5.1c2-2,4.65-3.1,7.47-3.1s5.48,1.1,7.47,3.1l41.43,41.43c2,2,3.1,4.65,3.1,7.47s-1.1,5.48-3.1,7.47l-41.43,41.43c-2,2-4.65,3.1-7.47,3.1Z"/>
        <path class="cls-1"
              d="M54,4c2.19,0,4.39,.84,6.06,2.51l41.43,41.43c3.35,3.35,3.35,8.77,0,12.12l-41.43,41.43c-1.67,1.67-3.87,2.51-6.06,2.51s-4.39-.84-6.06-2.51L6.51,60.06c-3.35-3.35-3.35-8.77,0-12.12L47.94,6.51c1.67-1.67,3.87-2.51,6.06-2.51M54,0C50.64,0,47.49,1.31,45.11,3.68L3.68,45.11c-4.9,4.9-4.9,12.87,0,17.77l41.43,41.43c2.37,2.37,5.53,3.68,8.89,3.68s6.51-1.31,8.89-3.68l41.43-41.43c4.9-4.9,4.9-12.87,0-17.77L62.89,3.68C60.51,1.31,57.36,0,54,0h0Z"/>
    </g>
    <path class="cls-2"
          d="M70.67,17.12l-10.61-10.61c-3.35-3.35-8.77-3.35-12.12,0L6.51,47.94c-3.35,3.35-3.35,8.77,0,12.12l10.75,10.75c16.26-16.43,38.84-39.2,53.41-53.68Z"/>
    <path class="cls-2" d="M81.47,27.92l-5.96-5.96L21.96,75.51l6.09,6.09c16.26-16.43,38.84-39.2,53.41-53.68Z"/>
</svg>
